  0
SECTION
  2
HEADER
  9
$ACADVER
  1
AC1009
  9
$INSBASE
 10
0.0
 20
0.0
 30
0.0
  9
$EXTMIN
 10
-2000.0
 20
-118.0
 30
0.0
  9
$EXTMAX
 10
118.0
 20
672.8920947242126
 30
0.0
  9
$LIMMIN
 10
0.0
 20
0.0
  9
$LIMMAX
 10
12.0
 20
9.0
  9
$ORTHOMODE
 70
     0
  9
$REGENMODE
 70
     1
  9
$FILLMODE
 70
     1
  9
$QTEXTMODE
 70
     0
  9
$MIRRTEXT
 70
     0
  9
$DRAGMODE
 70
     2
  9
$LTSCALE
 40
1.0
  9
$OSMODE
 70
    37
  9
$ATTMODE
 70
     1
  9
$TEXTSIZE
 40
0.2
  9
$TRACEWID
 40
0.05
  9
$TEXTSTYLE
  7
STANDARD
  9
$CLAYER
  8
0
  9
$CELTYPE
  6
BYLAYER
  9
$CECOLOR
 62
   256
  9
$DIMSCALE
 40
1.0
  9
$DIMASZ
 40
18.0
  9
$DIMEXO
 40
6.25
  9
$DIMDLI
 40
38.0
  9
$DIMRND
 40
0.0
  9
$DIMDLE
 40
0.0
  9
$DIMEXE
 40
18.0
  9
$DIMTP
 40
0.0
  9
$DIMTM
 40
0.0
  9
$DIMTXT
 40
18.0
  9
$DIMCEN
 40
9.0
  9
$DIMTSZ
 40
0.0
  9
$DIMTOL
 70
     0
  9
$DIMLIM
 70
     0
  9
$DIMTIH
 70
     0
  9
$DIMTOH
 70
     1
  9
$DIMSE1
 70
     0
  9
$DIMSE2
 70
     0
  9
$DIMTAD
 70
     0
  9
$DIMZIN
 70
     0
  9
$DIMBLK
  1

  9
$DIMASO
 70
     1
  9
$DIMSHO
 70
     1
  9
$DIMPOST
  1

  9
$DIMAPOST
  1

  9
$DIMALT
 70
     0
  9
$DIMALTD
 70
     2
  9
$DIMALTF
 40
25.399999999999999
  9
$DIMLFAC
 40
1.0
  9
$DIMTOFL
 70
     0
  9
$DIMTVP
 40
0.0
  9
$DIMTIX
 70
     0
  9
$DIMSOXD
 70
     0
  9
$DIMSAH
 70
     0
  9
$DIMBLK1
  1

  9
$DIMBLK2
  1

  9
$DIMSTYLE
  2
STANDARD
  9
$DIMCLRD
 70
     0
  9
$DIMCLRE
 70
     0
  9
$DIMCLRT
 70
     0
  9
$DIMTFAC
 40
1.0
  9
$DIMGAP
 40
9.0
  9
$LUNITS
 70
     2
  9
$LUPREC
 70
     4
  9
$SKETCHINC
 40
0.1
  9
$FILLETRAD
 40
0.0
  9
$AUNITS
 70
     0
  9
$AUPREC
 70
     0
  9
$MENU
  1
.
  9
$ELEVATION
 40
0.0
  9
$PELEVATION
 40
0.0
  9
$THICKNESS
 40
0.0
  9
$LIMCHECK
 70
     0
  9
$BLIPMODE
 70
     0
  9
$CHAMFERA
 40
0.0
  9
$CHAMFERB
 40
0.0
  9
$SKPOLY
 70
     0
  9
$TDCREATE
 40
2455609.9613764011
  9
$TDUPDATE
 40
2455609.9646137152
  9
$TDINDWG
 40
0.0032378472
  9
$TDUSRTIMER
 40
0.0032378472
  9
$USRTIMER
 70
     1
  9
$ANGBASE
 50
0.0
  9
$ANGDIR
 70
     0
  9
$PDMODE
 70
     0
  9
$PDSIZE
 40
0.0
  9
$PLINEWID
 40
0.0
  9
$COORDS
 70
     1
  9
$SPLFRAME
 70
     0
  9
$SPLINETYPE
 70
     6
  9
$SPLINESEGS
 70
     8
  9
$ATTDIA
 70
     0
  9
$ATTREQ
 70
     1
  9
$HANDLING
 70
     1
  9
$HANDSEED
  5
253
  9
$SURFTAB1
 70
     6
  9
$SURFTAB2
 70
     6
  9
$SURFTYPE
 70
     6
  9
$SURFU
 70
     6
  9
$SURFV
 70
     6
  9
$UCSNAME
  2

  9
$UCSORG
 10
0.0
 20
0.0
 30
0.0
  9
$UCSXDIR
 10
1.0
 20
0.0
 30
0.0
  9
$UCSYDIR
 10
0.0
 20
1.0
 30
0.0
  9
$PUCSNAME
  2

  9
$PUCSORG
 10
0.0
 20
0.0
 30
0.0
  9
$PUCSXDIR
 10
1.0
 20
0.0
 30
0.0
  9
$PUCSYDIR
 10
0.0
 20
1.0
 30
0.0
  9
$USERI1
 70
     0
  9
$USERI2
 70
     0
  9
$USERI3
 70
     0
  9
$USERI4
 70
     0
  9
$USERI5
 70
     0
  9
$USERR1
 40
0.0
  9
$USERR2
 40
0.0
  9
$USERR3
 40
0.0
  9
$USERR4
 40
0.0
  9
$USERR5
 40
0.0
  9
$WORLDVIEW
 70
     1
  9
$SHADEDGE
 70
     3
  9
$SHADEDIF
 70
    70
  9
$TILEMODE
 70
     1
  9
$MAXACTVP
 70
    64
  9
$PLIMCHECK
 70
     0
  9
$PEXTMIN
 10
1.0000000000000000E+020
 20
1.0000000000000000E+020
 30
1.0000000000000000E+020
  9
$PEXTMAX
 10
-1.0000000000000000E+020
 20
-1.0000000000000000E+020
 30
-1.0000000000000000E+020
  9
$PLIMMIN
 10
0.0
 20
0.0
  9
$PLIMMAX
 10
12.0
 20
9.0
  9
$UNITMODE
 70
     0
  9
$VISRETAIN
 70
     1
  9
$PLINEGEN
 70
     0
  9
$PSLTSCALE
 70
     1
  0
ENDSEC
  0
SECTION
  2
TABLES
  0
TABLE
  2
VPORT
 70
     1
  0
VPORT
  2
*ACTIVE
 70
     0
 10
0.0
 20
0.0
 11
1.0
 21
1.0
 12
-941.0
 22
241.0
 13
0.0
 23
0.0
 14
1.0
 24
1.0
 15
0.0
 25
0.0
 16
0.0
 26
0.0
 36
1.0
 17
0.0
 27
0.0
 37
0.0
 40
1857.5477202659231
 41
2.2910714285714282
 42
50.0
 43
0.0
 44
0.0
 50
0.0
 51
0.0
 71
     0
 72
  1000
 73
     1
 74
     3
 75
     0
 76
     0
 77
     0
 78
     0
  0
ENDTAB
  0
TABLE
  2
LTYPE
 70
     1
  0
LTYPE
  2
CONTINUOUS
 70
     0
  3
Solid line
 72
    65
 73
     0
 40
0.0
  0
ENDTAB
  0
TABLE
  2
LAYER
 70
     3
  0
LAYER
  2
0
 70
     0
 62
     7
  6
CONTINUOUS
  0
LAYER
  2
实线
 70
     0
 62
     7
  6
CONTINUOUS
  0
LAYER
  2
DEFPOINTS
 70
     0
 62
     7
  6
CONTINUOUS
  0
ENDTAB
  0
TABLE
  2
STYLE
 70
     2
  0
STYLE
  2
STANDARD
 70
     0
 40
0.0
 41
1.0
 50
0.0
 71
     0
 42
0.2
  3
txt
  4

  0
STYLE
  2
ANNOTATIVE
 70
     0
 40
0.0
 41
1.0
 50
0.0
 71
     0
 42
0.2
  3
txt
  4

  0
ENDTAB
  0
TABLE
  2
VIEW
 70
     0
  0
ENDTAB
  0
TABLE
  2
UCS
 70
     0
  0
ENDTAB
  0
TABLE
  2
APPID
 70
     6
  0
APPID
  2
ACAD
 70
     0
  0
APPID
  2
ACADANNOTATIVE
 70
     0
  0
APPID
  2
ACAD_DSTYLE_DIMJAG
 70
     0
  0
APPID
  2
ACAD_DSTYLE_DIMBREAK
 70
     0
  0
APPID
  2
ACAD_DSTYLE_DIMTALN
 70
     0
  0
APPID
  2
ACAD_MLEADERVER
 70
     0
  0
ENDTAB
  0
TABLE
  2
DIMSTYLE
 70
     2
  0
DIMSTYLE
  2
STANDARD
 70
     0
  3

  4

  5

  6

  7

 40
1.0
 41
18.0
 42
6.25
 43
38.0
 44
18.0
 45
0.0
 46
0.0
 47
0.0
 48
0.0
140
18.0
141
9.0
142
0.0
143
25.399999999999999
144
1.0
145
0.0
146
1.0
147
9.0
 71
     0
 72
     0
 73
     0
 74
     1
 75
     0
 76
     0
 77
     0
 78
     0
170
     0
171
     2
172
     0
173
     0
174
     0
175
     0
176
     0
177
     0
178
     0
  0
DIMSTYLE
  2
ANNOTATIVE
 70
     0
  3

  4

  5

  6

  7

 40
1.0
 41
0.18
 42
0.0625
 43
0.38
 44
0.18
 45
0.0
 46
0.0
 47
0.0
 48
0.0
140
0.18
141
0.09
142
0.0
143
25.399999999999999
144
1.0
145
0.0
146
1.0
147
0.09
 71
     0
 72
     0
 73
     1
 74
     1
 75
     0
 76
     0
 77
     0
 78
     0
170
     0
171
     2
172
     0
173
     0
174
     0
175
     0
176
     0
177
     0
178
     0
  0
ENDTAB
  0
ENDSEC
  0
SECTION
  2
BLOCKS
  0
BLOCK
  8
0
  2
$MODEL_SPACE
 70
     0
 10
0.0
 20
0.0
 30
0.0
  3
$MODEL_SPACE
  1

  0
ENDBLK
  5
6D
  8
0
  0
BLOCK
 67
     1
  8
0
  2
$PAPER_SPACE
 70
     0
 10
0.0
 20
0.0
 30
0.0
  3
$PAPER_SPACE
  1

  0
ENDBLK
  5
69
 67
     1
  8
0
  0
BLOCK
  8
0
  2
*D0
 70
     1
 10
0.0
 20
0.0
 30
0.0
  3
*D0
  1

  0
LINE
  5
189
  8
0
 62
     0
 10
-2000.0
 20
606.25
 30
0.0
 11
-2000.0
 21
672.8920947242126
 31
0.0
  0
LINE
  5
18A
  8
0
 62
     0
 10
0.0000000000000004
 20
606.25
 30
0.0
 11
0.0000000000000045
 21
672.8920947242126
 31
0.0
  0
LINE
  5
18B
  8
0
 62
     0
 10
-1982.0
 20
654.89209472421271
 30
0.0
 11
-1070.5
 21
654.89209472421271
 31
0.0
  0
LINE
  5
18C
  8
0
 62
     0
 10
-18.0
 20
654.89209472421271
 30
0.0
 11
-929.49999999999989
 21
654.89209472421271
 31
0.0
  0
SOLID
  5
18D
  8
0
 62
     0
 10
-1982.0
 20
657.89209472421271
 30
0.0
 11
-1982.0
 21
651.89209472421271
 31
0.0
 12
-2000.0
 22
654.89209472421271
 32
0.0
 13
-2000.0
 23
654.89209472421271
 33
0.0
  0
SOLID
  5
18E
  8
0
 62
     0
 10
-18.0
 20
657.89209472421271
 30
0.0
 11
-18.0
 21
651.89209472421271
 31
0.0
 12
0.0000000000000034
 22
654.89209472421271
 32
0.0
 13
0.0000000000000034
 23
654.89209472421271
 33
0.0
  0
INSERT
  5
18F
  8
0
  2
*U2
 10
0.0
 20
0.0
 30
0.0
  0
POINT
  5
190
  8
DEFPOINTS
 62
     0
 10
-2000.0
 20
600.0
 30
0.0
  0
POINT
  5
191
  8
DEFPOINTS
 62
     0
 10
0.0
 20
600.0
 30
0.0
  0
POINT
  5
192
  8
DEFPOINTS
 62
     0
 10
0.0000000000000034
 20
654.89209472421271
 30
0.0
  0
ENDBLK
  5
188
  8
0
  0
BLOCK
  8
0
  2
*D1
 70
     1
 10
0.0
 20
0.0
 30
0.0
  3
*D1
  1

  0
LINE
  5
1F1
  8
0
 62
     0
 10
6.25
 20
600.0
 30
0.0
 11
56.424743100412464
 21
600.0
 31
0.0
  0
LINE
  5
1F2
  8
0
 62
     0
 10
6.249999999999889
 20
-0.0000000000000018
 30
0.0
 11
56.424743100412329
 21
-0.000000000000016
 31
0.0
  0
LINE
  5
1F3
  8
0
 62
     0
 10
38.424743100412464
 20
582.0
 30
0.0
 11
38.424743100412407
 21
363.0
 31
0.0
  0
LINE
  5
1F4
  8
0
 62
     0
 10
38.424743100412343
 20
17.999999999999989
 30
0.0
 11
38.424743100412378
 21
237.0
 31
0.0
  0
SOLID
  5
1F5
  8
0
 62
     0
 10
35.424743100412464
 20
582.0
 30
0.0
 11
41.424743100412449
 21
582.0
 31
0.0
 12
38.424743100412471
 22
600.0
 32
0.0
 13
38.424743100412471
 23
600.0
 33
0.0
  0
SOLID
  5
1F6
  8
0
 62
     0
 10
35.424743100412343
 20
17.999999999999989
 30
0.0
 11
41.424743100412329
 21
17.999999999999979
 31
0.0
 12
38.424743100412329
 22
-0.0000000000000109
 32
0.0
 13
38.424743100412329
 23
-0.0000000000000109
 33
0.0
  0
INSERT
  5
1F7
  8
0
  2
*U3
 10
0.0
 20
0.0
 30
0.0
  0
POINT
  5
1F8
  8
DEFPOINTS
 62
     0
 10
0.0
 20
600.0
 30
0.0
  0
POINT
  5
1F9
  8
DEFPOINTS
 62
     0
 10
-0.0000000000001102
 20
0.0
 30
0.0
  0
POINT
  5
1FA
  8
DEFPOINTS
 62
     0
 10
38.424743100412329
 20
-0.0000000000000109
 30
0.0
  0
ENDBLK
  5
1F0
  8
0
  0
BLOCK
  8
0
  2
*U2
 70
     1
 10
0.0
 20
0.0
 30
0.0
  3
*U2
  1

  0
TEXT
  5
24C
  8
0
 62
     0
 10
-1061.5
 20
645.89209472421271
 30
0.0
 40
18.0
  1
2000.0000
  0
ENDBLK
  5
24E
  8
0
  0
BLOCK
  8
0
  2
*U3
 70
     1
 10
0.0
 20
0.0
 30
0.0
  3
*U3
  1

  0
TEXT
  5
250
  8
0
 62
     0
 10
47.424743100412343
 20
246.0
 30
0.0
 40
18.0
  1
600.0000
 50
90.0
  0
ENDBLK
  5
252
  8
0
  0
ENDSEC
  0
SECTION
  2
ENTITIES
  0
POLYLINE
  5
70
  8
实线
 66
     1
 10
0.0
 20
0.0
 30
0.0
 70
     1
  0
VERTEX
  5
23C
  8
实线
 10
-2000.0
 20
0.0
 30
0.0
  0
VERTEX
  5
23D
  8
实线
 10
-2000.0
 20
600.0
 30
0.0
  0
VERTEX
  5
23E
  8
实线
 10
0.0
 20
600.0
 30
0.0
  0
VERTEX
  5
23F
  8
实线
 10
0.0
 20
0.0
 30
0.0
  0
SEQEND
  5
240
  8
实线
  0
POLYLINE
  5
76
  8
实线
 66
     1
 10
0.0
 20
0.0
 30
0.0
 70
     1
  0
VERTEX
  5
241
  8
实线
 10
100.0
 20
0.0
 30
0.0
  0
VERTEX
  5
242
  8
实线
 10
100.0
 20
600.0
 30
0.0
  0
VERTEX
  5
243
  8
实线
 10
118.0
 20
600.0
 30
0.0
  0
VERTEX
  5
244
  8
实线
 10
118.0
 20
0.0
 30
0.0
  0
SEQEND
  5
245
  8
实线
  0
POLYLINE
  5
7C
  8
实线
 66
     1
 10
0.0
 20
0.0
 30
0.0
 70
     1
  0
VERTEX
  5
246
  8
实线
 10
-2000.0
 20
-118.0
 30
0.0
  0
VERTEX
  5
247
  8
实线
 10
-2000.0
 20
-100.0
 30
0.0
  0
VERTEX
  5
248
  8
实线
 10
0.0
 20
-100.0
 30
0.0
  0
VERTEX
  5
249
  8
实线
 10
0.0
 20
-118.0
 30
0.0
  0
SEQEND
  5
24A
  8
实线
  0
DIMENSION
  5
184
  8
0
  2
*D0
 10
0.0000000000000034
 20
654.89209472421271
 30
0.0
 11
-1000.0
 21
654.89209472421271
 31
0.0
 70
     1
 13
-2000.0
 23
600.0
 33
0.0
 14
0.0
 24
600.0
 34
0.0
  0
DIMENSION
  5
1ED
  8
0
  2
*D1
 10
38.424743100412329
 20
-0.0000000000000109
 30
0.0
 11
38.42474310041235
 21
300.0
 31
0.0
 70
     1
 13
0.0
 23
600.0
 33
0.0
 14
-0.0000000000001102
 24
0.0
 34
0.0
  0
ENDSEC
  0
EOF
