  0
SECTION
  2
HEADER
  0
ENDSEC
  0
SECTION
  2
BLOCKS
  0
BLOCK
  8
0
  2
$MODEL_SPACE
 70
     0
 10
0.0
 20
0.0
 30
0.0
  3
$MODEL_SPACE
  1

  0
ENDBLK
  5
6D
  8
0
  0
BLOCK
 67
     1
  8
0
  2
$PAPER_SPACE
 70
     0
 10
0.0
 20
0.0
 30
0.0
  3
$PAPER_SPACE
  1

  0
ENDBLK
  5
69
 67
     1
  8
0
  0
BLOCK
  8
0
  2
*D0
 70
     1
 10
0.0
 20
0.0
 30
0.0
  3
*D0
  1

  0
LINE
  5
72
  8
标注
 10
-2000.0
 20
603.0
 30
0.0
 11
-2000.0
 21
630.0
 31
0.0
  0
LINE
  5
73
  8
标注
 10
0.0
 20
603.0
 30
0.0
 11
0.0
 21
630.0
 31
0.0
  0
LINE
  5
74
  8
标注
 10
-2000.0
 20
620.0
 30
0.0
 11
0.0
 21
620.0
 31
0.0
  0
SOLID
  5
75
  8
标注
 10
-1982.0
 20
617.0
 30
0.0
 11
-1982.0
 21
623.0
 31
0.0
 12
-2000.0
 22
620.0
 32
0.0
 13
-2000.0
 23
620.0
 33
0.0
  0
SOLID
  5
76
  8
标注
 10
-18.0
 20
617.0
 30
0.0
 11
-18.0
 21
623.0
 31
0.0
 12
0.0
 22
620.0
 32
0.0
 13
0.0
 23
620.0
 33
0.0
  0
INSERT
  5
78
  8
0
  2
*U1
 10
0.0
 20
0.0
 30
0.0
  0
POINT
  5
7A
  8
DEFPOINTS
 10
-2000.0
 20
600.0
 30
0.0
  0
POINT
  5
7B
  8
DEFPOINTS
 10
0.0
 20
600.0
 30
0.0
  0
POINT
  5
7C
  8
DEFPOINTS
 10
0.0
 20
620.0
 30
0.0
  0
ENDBLK
  5
7D
  8
0
  0
BLOCK
  8
0
  2
*U1
 70
     1
 10
0.0
 20
0.0
 30
0.0
  3
*U1
  1

  0
TEXT
  5
7F
  8
标注
 10
0.0
 20
630.0
 30
0.0
 40
18.0
  1
2000
  0
ENDBLK
  5
81
  8
0
  0
BLOCK
  8
0
  2
*D2
 70
     1
 10
0.0
 20
0.0
 30
0.0
  3
*D2
  1

  0
LINE
  5
9B
  8
标注
 62
     0
 10
-2000.0
 20
600.0625
 30
0.0
 11
-2000.0
 21
630.17999999999995
 31
0.0
  0
LINE
  5
9C
  8
标注
 62
     0
 10
0.0
 20
600.0625
 30
0.0
 11
0.0000000000000018
 21
630.17999999999995
 31
0.0
  0
LINE
  5
9D
  8
标注
 62
     0
 10
-1999.8199999999999
 20
630.0
 30
0.0
 11
-1000.705
 21
630.0
 31
0.0
  0
LINE
  5
9E
  8
标注
 62
     0
 10
-0.1799999999999982
 20
630.0
 30
0.0
 11
-999.29499999999996
 21
630.0
 31
0.0
  0
SOLID
  5
9F
  8
标注
 62
     0
 10
-1999.8199999999999
 20
630.02999999999997
 30
0.0
 11
-1999.8199999999999
 21
629.97000000000003
 31
0.0
 12
-2000.0
 22
630.0
 32
0.0
 13
-2000.0
 23
630.0
 33
0.0
  0
SOLID
  5
A0
  8
标注
 62
     0
 10
-0.1799999999999982
 20
630.02999999999997
 30
0.0
 11
-0.1799999999999982
 21
629.97000000000003
 31
0.0
 12
0.0000000000000018
 22
630.0
 32
0.0
 13
0.0000000000000018
 23
630.0
 33
0.0
  0
INSERT
  5
A1
  8
0
  2
*U3
 10
0.0
 20
0.0
 30
0.0
  0
POINT
  5
A2
  8
DEFPOINTS
 62
     0
 10
-2000.0
 20
600.0
 30
0.0
  0
POINT
  5
A3
  8
DEFPOINTS
 62
     0
 10
0.0
 20
600.0
 30
0.0
  0
POINT
  5
A4
  8
DEFPOINTS
 62
     0
 10
0.0000000000000018
 20
630.0
 30
0.0
  0
ENDBLK
  5
9A
  8
0
  0
BLOCK
  8
0
  2
*U3
 70
     1
 10
0.0
 20
0.0
 30
0.0
  3
*U3
  1

  0
TEXT
  5
104
  8
标注
 62
     0
 10
-1000.615
 20
629.91000000000008
 30
0.0
 40
0.18
  1
2000.0000
  0
ENDBLK
  5
106
  8
0
  0
ENDSEC
  0
SECTION
  2
ENTITIES
  0
POLYLINE
  5
83
  8
实线
 66
     1
 10
0.0
 20
0.0
 30
0.0
 70
     1
  0
VERTEX
  5
F4
  8
实线
 10
-2000.0
 20
0.0
 30
0.0
  0
VERTEX
  5
F5
  8
实线
 10
-2000.0
 20
600.0
 30
0.0
  0
VERTEX
  5
F6
  8
实线
 10
0.0
 20
600.0
 30
0.0
  0
VERTEX
  5
F7
  8
实线
 10
0.0
 20
0.0
 30
0.0
  0
SEQEND
  5
F8
  8
实线
  0
POLYLINE
  5
89
  8
实线
 66
     1
 10
0.0
 20
0.0
 30
0.0
 70
     1
  0
VERTEX
  5
F9
  8
实线
 10
100.0
 20
0.0
 30
0.0
  0
VERTEX
  5
FA
  8
实线
 10
100.0
 20
600.0
 30
0.0
  0
VERTEX
  5
FB
  8
实线
 10
118.0
 20
600.0
 30
0.0
  0
VERTEX
  5
FC
  8
实线
 10
118.0
 20
0.0
 30
0.0
  0
SEQEND
  5
FD
  8
实线
  0
POLYLINE
  5
8F
  8
实线
 66
     1
 10
0.0
 20
0.0
 30
0.0
 70
     1
  0
VERTEX
  5
FE
  8
实线
 10
-2000.0
 20
-118.0
 30
0.0
  0
VERTEX
  5
FF
  8
实线
 10
-2000.0
 20
-100.0
 30
0.0
  0
VERTEX
  5
100
  8
实线
 10
0.0
 20
-100.0
 30
0.0
  0
VERTEX
  5
101
  8
实线
 10
0.0
 20
-118.0
 30
0.0
  0
SEQEND
  5
102
  8
实线
  0
DIMENSION
  5
95
  8
标注
  2
*D2
 10
0.0000000000000018
 20
630.0
 30
0.0
 11
-1000.0
 21
630.0
 31
0.0
 70
   129
 13
-2000.0
 23
600.0
 33
0.0
 14
0.0
 24
600.0
 34
0.0
  0
ENDSEC
  0
EOF
