  0
SECTION
  2
HEADER
  9
$ACADVER
  1
AC1009
  9
$INSBASE
 10
0.0
 20
0.0
 30
0.0
  9
$EXTMIN
 10
-2000.0
 20
-318.0
 30
0.0
  9
$EXTMAX
 10
469.76850017781732
 20
686.95605632110164
 30
0.0
  9
$LIMMIN
 10
0.0
 20
0.0
  9
$LIMMAX
 10
12.0
 20
9.0
  9
$ORTHOMODE
 70
     0
  9
$REGENMODE
 70
     1
  9
$FILLMODE
 70
     1
  9
$QTEXTMODE
 70
     0
  9
$MIRRTEXT
 70
     0
  9
$DRAGMODE
 70
     2
  9
$LTSCALE
 40
1.0
  9
$OSMODE
 70
    37
  9
$ATTMODE
 70
     1
  9
$TEXTSIZE
 40
0.2
  9
$TRACEWID
 40
0.05
  9
$TEXTSTYLE
  7
STANDARD
  9
$CLAYER
  8
0
  9
$CELTYPE
  6
CONTINUOUS
  9
$CECOLOR
 62
   256
  9
$DIMSCALE
 40
1.0
  9
$DIMASZ
 40
18.0
  9
$DIMEXO
 40
6.0
  9
$DIMDLI
 40
0.0
  9
$DIMRND
 40
0.0
  9
$DIMDLE
 40
0.0
  9
$DIMEXE
 40
10.0
  9
$DIMTP
 40
0.0
  9
$DIMTM
 40
0.0
  9
$DIMTXT
 40
18.0
  9
$DIMCEN
 40
0.09
  9
$DIMTSZ
 40
0.0
  9
$DIMTOL
 70
     0
  9
$DIMLIM
 70
     0
  9
$DIMTIH
 70
     1
  9
$DIMTOH
 70
     1
  9
$DIMSE1
 70
     0
  9
$DIMSE2
 70
     0
  9
$DIMTAD
 70
     2
  9
$DIMZIN
 70
     0
  9
$DIMBLK
  1

  9
$DIMASO
 70
     1
  9
$DIMSHO
 70
     1
  9
$DIMPOST
  1

  9
$DIMAPOST
  1

  9
$DIMALT
 70
     0
  9
$DIMALTD
 70
     2
  9
$DIMALTF
 40
25.399999999999999
  9
$DIMLFAC
 40
1.0
  9
$DIMTOFL
 70
     0
  9
$DIMTVP
 40
0.0
  9
$DIMTIX
 70
     0
  9
$DIMSOXD
 70
     0
  9
$DIMSAH
 70
     0
  9
$DIMBLK1
  1

  9
$DIMBLK2
  1

  9
$DIMSTYLE
  2
STANDARD
  9
$DIMCLRD
 70
     0
  9
$DIMCLRE
 70
     0
  9
$DIMCLRT
 70
     0
  9
$DIMTFAC
 40
1.0
  9
$DIMGAP
 40
10.0
  9
$LUNITS
 70
     2
  9
$LUPREC
 70
     4
  9
$SKETCHINC
 40
0.1
  9
$FILLETRAD
 40
0.0
  9
$AUNITS
 70
     0
  9
$AUPREC
 70
     0
  9
$MENU
  1
.
  9
$ELEVATION
 40
0.0
  9
$PELEVATION
 40
0.0
  9
$THICKNESS
 40
0.0
  9
$LIMCHECK
 70
     0
  9
$BLIPMODE
 70
     0
  9
$CHAMFERA
 40
0.0
  9
$CHAMFERB
 40
0.0
  9
$SKPOLY
 70
     0
  9
$TDCREATE
 40
2455612.761119063
  9
$TDUPDATE
 40
2455612.769617327
  9
$TDINDWG
 40
0.0084998958
  9
$TDUSRTIMER
 40
0.0084998958
  9
$USRTIMER
 70
     1
  9
$ANGBASE
 50
0.0
  9
$ANGDIR
 70
     0
  9
$PDMODE
 70
     0
  9
$PDSIZE
 40
0.0
  9
$PLINEWID
 40
0.0
  9
$COORDS
 70
     1
  9
$SPLFRAME
 70
     0
  9
$SPLINETYPE
 70
     6
  9
$SPLINESEGS
 70
     8
  9
$ATTDIA
 70
     0
  9
$ATTREQ
 70
     1
  9
$HANDLING
 70
     1
  9
$HANDSEED
  5
4CB
  9
$SURFTAB1
 70
     6
  9
$SURFTAB2
 70
     6
  9
$SURFTYPE
 70
     6
  9
$SURFU
 70
     6
  9
$SURFV
 70
     6
  9
$UCSNAME
  2

  9
$UCSORG
 10
0.0
 20
0.0
 30
0.0
  9
$UCSXDIR
 10
1.0
 20
0.0
 30
0.0
  9
$UCSYDIR
 10
0.0
 20
1.0
 30
0.0
  9
$PUCSNAME
  2

  9
$PUCSORG
 10
0.0
 20
0.0
 30
0.0
  9
$PUCSXDIR
 10
1.0
 20
0.0
 30
0.0
  9
$PUCSYDIR
 10
0.0
 20
1.0
 30
0.0
  9
$USERI1
 70
     0
  9
$USERI2
 70
     0
  9
$USERI3
 70
     0
  9
$USERI4
 70
     0
  9
$USERI5
 70
     0
  9
$USERR1
 40
0.0
  9
$USERR2
 40
0.0
  9
$USERR3
 40
0.0
  9
$USERR4
 40
0.0
  9
$USERR5
 40
0.0
  9
$WORLDVIEW
 70
     1
  9
$SHADEDGE
 70
     3
  9
$SHADEDIF
 70
    70
  9
$TILEMODE
 70
     1
  9
$MAXACTVP
 70
    64
  9
$PLIMCHECK
 70
     0
  9
$PEXTMIN
 10
1.0000000000000000E+020
 20
1.0000000000000000E+020
 30
1.0000000000000000E+020
  9
$PEXTMAX
 10
-1.0000000000000000E+020
 20
-1.0000000000000000E+020
 30
-1.0000000000000000E+020
  9
$PLIMMIN
 10
0.0
 20
0.0
  9
$PLIMMAX
 10
12.0
 20
9.0
  9
$UNITMODE
 70
     0
  9
$VISRETAIN
 70
     1
  9
$PLINEGEN
 70
     0
  9
$PSLTSCALE
 70
     1
  0
ENDSEC
  0
SECTION
  2
TABLES
  0
TABLE
  2
VPORT
 70
     1
  0
VPORT
  2
*ACTIVE
 70
     0
 10
0.0
 20
0.0
 11
1.0
 21
1.0
 12
228.53937224519871
 22
575.1299515589285
 13
0.0
 23
0.0
 14
1.0
 24
1.0
 15
0.0
 25
0.0
 16
0.0
 26
0.0
 36
1.0
 17
0.0
 27
0.0
 37
0.0
 40
284.05666998864763
 41
2.4584139264990319
 42
50.0
 43
0.0
 44
0.0
 50
0.0
 51
0.0
 71
     0
 72
  1000
 73
     1
 74
     3
 75
     0
 76
     0
 77
     0
 78
     0
  0
ENDTAB
  0
TABLE
  2
LTYPE
 70
     2
  0
LTYPE
  2
CONTINUOUS
 70
     0
  3
Solid line
 72
    65
 73
     0
 40
0.0
  0
ENDTAB
  0
TABLE
  2
LAYER
 70
     4
  0
LAYER
  2
0
 70
     0
 62
     7
  6
CONTINUOUS
  0
LAYER
  2
标注
 70
     0
 62
     7
  6
CONTINUOUS
  0
LAYER
  2
DEFPOINTS
 70
     0
 62
     7
  6
CONTINUOUS
  0
LAYER
  2
实线
 70
     0
 62
     7
  6
CONTINUOUS
  0
ENDTAB
  0
TABLE
  2
STYLE
 70
     2
  0
STYLE
  2
STANDARD
 70
     0
 40
0.0
 41
1.0
 50
0.0
 71
     0
 42
0.2
  3
txt
  4

  0
STYLE
  2
ANNOTATIVE
 70
     0
 40
0.0
 41
1.0
 50
0.0
 71
     0
 42
0.2
  3
txt
  4

  0
ENDTAB
  0
TABLE
  2
VIEW
 70
     0
  0
ENDTAB
  0
TABLE
  2
UCS
 70
     0
  0
ENDTAB
  0
TABLE
  2
APPID
 70
     6
  0
APPID
  2
ACAD
 70
     0
  0
APPID
  2
ACADANNOTATIVE
 70
     0
  0
APPID
  2
ACAD_DSTYLE_DIMJAG
 70
     0
  0
APPID
  2
ACAD_DSTYLE_DIMBREAK
 70
     0
  0
APPID
  2
ACAD_DSTYLE_DIMTALN
 70
     0
  0
APPID
  2
ACAD_MLEADERVER
 70
     0
  0
ENDTAB
  0
TABLE
  2
DIMSTYLE
 70
     3
  0
DIMSTYLE
  2
STANDARD
 70
     0
  3

  4

  5

  6

  7

 40
1.0
 41
18.0
 42
6.0
 43
0.0
 44
10.0
 45
0.0
 46
0.0
 47
0.0
 48
0.0
140
18.0
141
0.09
142
0.0
143
25.399999999999999
144
1.0
145
0.0
146
1.0
147
10.0
 71
     0
 72
     0
 73
     1
 74
     1
 75
     0
 76
     0
 77
     2
 78
     0
170
     0
171
     2
172
     0
173
     0
174
     0
175
     0
176
     0
177
     0
178
     0
  0
DIMSTYLE
  2
ANNOTATIVE
 70
     0
  3

  4

  5

  6

  7

 40
1.0
 41
0.18
 42
0.0625
 43
0.38
 44
0.18
 45
0.0
 46
0.0
 47
0.0
 48
0.0
140
0.18
141
0.09
142
0.0
143
25.399999999999999
144
1.0
145
0.0
146
1.0
147
0.09
 71
     0
 72
     0
 73
     1
 74
     1
 75
     0
 76
     0
 77
     0
 78
     0
170
     0
171
     2
172
     0
173
     0
174
     0
175
     0
176
     0
177
     0
178
     0
  0
ENDTAB
  0
ENDSEC
  0
SECTION
  2
BLOCKS
  0
BLOCK
  8
0
  2
$MODEL_SPACE
 70
     0
 10
0.0
 20
0.0
 30
0.0
  3
$MODEL_SPACE
  1

  0
ENDBLK
  5
6D
  8
0
  0
BLOCK
 67
     1
  8
0
  2
$PAPER_SPACE
 70
     0
 10
0.0
 20
0.0
 30
0.0
  3
$PAPER_SPACE
  1

  0
ENDBLK
  5
69
 67
     1
  8
0
  0
BLOCK
  8
0
  2
*D0
 70
     1
 10
0.0
 20
0.0
 30
0.0
  3
*D0
  1

  0
LINE
  5
72
  8
标注
 10
-2000.0
 20
606.0
 30
0.0
 11
-2000.0
 21
630.0
 31
0.0
  0
LINE
  5
73
  8
标注
 10
0.0
 20
606.0
 30
0.0
 11
0.0
 21
630.0
 31
0.0
  0
LINE
  5
74
  8
标注
 10
-2000.0
 20
620.0
 30
0.0
 11
0.0
 21
620.0
 31
0.0
  0
SOLID
  5
75
  8
标注
 10
-1982.0
 20
617.0
 30
0.0
 11
-1982.0
 21
623.0
 31
0.0
 12
-2000.0
 22
620.0
 32
0.0
 13
-2000.0
 23
620.0
 33
0.0
  0
SOLID
  5
76
  8
标注
 10
-18.0
 20
617.0
 30
0.0
 11
-18.0
 21
623.0
 31
0.0
 12
0.0
 22
620.0
 32
0.0
 13
0.0
 23
620.0
 33
0.0
  0
INSERT
  5
78
  8
0
  2
*U1
 10
0.0
 20
0.0
 30
0.0
  0
POINT
  5
7A
  8
DEFPOINTS
 10
-2000.0
 20
600.0
 30
0.0
  0
POINT
  5
7B
  8
DEFPOINTS
 10
0.0
 20
600.0
 30
0.0
  0
POINT
  5
7C
  8
DEFPOINTS
 10
0.0
 20
620.0
 30
0.0
  0
ENDBLK
  5
7D
  8
0
  0
BLOCK
  8
0
  2
*U1
 70
     1
 10
0.0
 20
0.0
 30
0.0
  3
*U1
  1

  0
TEXT
  5
7F
  8
标注
 10
-1000.0
 20
630.0
 30
0.0
 40
18.0
  1
2000
  0
ENDBLK
  5
81
  8
0
  0
BLOCK
  8
0
  2
*D2
 70
     1
 10
0.0
 20
0.0
 30
0.0
  3
*D2
  1

  0
LINE
  5
84
  8
标注
 10
6.0
 20
600.0
 30
0.0
 11
30.0
 21
600.0
 31
0.0
  0
LINE
  5
85
  8
标注
 10
6.0
 20
0.0
 30
0.0
 11
30.0
 21
0.0
 31
0.0
  0
LINE
  5
86
  8
标注
 10
20.0
 20
600.0
 30
0.0
 11
20.0
 21
0.0
 31
0.0
  0
SOLID
  5
87
  8
标注
 10
17.0
 20
582.0
 30
0.0
 11
23.0
 21
582.0
 31
0.0
 12
20.0
 22
600.0
 32
0.0
 13
20.0
 23
600.0
 33
0.0
  0
SOLID
  5
88
  8
标注
 10
17.0
 20
18.0
 30
0.0
 11
23.0
 21
18.0
 31
0.0
 12
20.0
 22
0.0
 32
0.0
 13
20.0
 23
0.0
 33
0.0
  0
INSERT
  5
8A
  8
0
  2
*U3
 10
0.0
 20
0.0
 30
0.0
  0
POINT
  5
8B
  8
DEFPOINTS
 10
0.0
 20
600.0
 30
0.0
  0
POINT
  5
8C
  8
DEFPOINTS
 10
0.0
 20
0.0
 30
0.0
  0
POINT
  5
8D
  8
DEFPOINTS
 10
20.0
 20
0.0
 30
0.0
  0
ENDBLK
  5
8E
  8
0
  0
BLOCK
  8
0
  2
*U3
 70
     1
 10
0.0
 20
0.0
 30
0.0
  3
*U3
  1

  0
TEXT
  5
90
  8
标注
 10
30.0
 20
300.0
 30
0.0
 40
18.0
  1
600
  0
ENDBLK
  5
91
  8
0
  0
BLOCK
  8
0
  2
*D4
 70
     1
 10
0.0
 20
0.0
 30
0.0
  3
*D4
  1

  0
LINE
  5
94
  8
标注
 10
300.0
 20
606.0
 30
0.0
 11
300.0
 21
630.0
 31
0.0
  0
LINE
  5
95
  8
标注
 10
318.0
 20
606.0
 30
0.0
 11
318.0
 21
630.0
 31
0.0
  0
LINE
  5
96
  8
标注
 10
300.0
 20
620.0
 30
0.0
 11
318.0
 21
620.0
 31
0.0
  0
SOLID
  5
97
  8
标注
 10
318.0
 20
617.0
 30
0.0
 11
318.0
 21
623.0
 31
0.0
 12
300.0
 22
620.0
 32
0.0
 13
300.0
 23
620.0
 33
0.0
  0
SOLID
  5
98
  8
标注
 10
300.0
 20
617.0
 30
0.0
 11
300.0
 21
623.0
 31
0.0
 12
318.0
 22
620.0
 32
0.0
 13
318.0
 23
620.0
 33
0.0
  0
INSERT
  5
9A
  8
0
  2
*U5
 10
0.0
 20
0.0
 30
0.0
  0
POINT
  5
9B
  8
DEFPOINTS
 10
300.0
 20
600.0
 30
0.0
  0
POINT
  5
9C
  8
DEFPOINTS
 10
318.0
 20
600.0
 30
0.0
  0
POINT
  5
9D
  8
DEFPOINTS
 10
318.0
 20
620.0
 30
0.0
  0
ENDBLK
  5
9E
  8
0
  0
BLOCK
  8
0
  2
*U5
 70
     1
 10
0.0
 20
0.0
 30
0.0
  3
*U5
  1

  0
TEXT
  5
A0
  8
标注
 10
309.0
 20
630.0
 30
0.0
 40
18.0
  1
18
  0
ENDBLK
  5
A1
  8
0
  0
BLOCK
  8
0
  2
*D6
 70
     1
 10
0.0
 20
0.0
 30
0.0
  3
*D6
  1

  0
LINE
  5
23D
  8
标注
 62
     0
 10
300.0
 20
606.0
 30
0.0
 11
300.0
 21
657.32213642022771
 31
0.0
  0
LINE
  5
23E
  8
标注
 62
     0
 10
318.0
 20
606.0
 30
0.0
 11
318.0
 21
657.32213642022771
 31
0.0
  0
LINE
  5
23F
  8
标注
 62
     0
 10
282.0
 20
647.32213642022759
 30
0.0
 11
264.0
 21
647.32213642022759
 31
0.0
  0
LINE
  5
240
  8
标注
 62
     0
 10
336.0
 20
647.32213642022759
 30
0.0
 11
464.0
 21
647.32213642022759
 31
0.0
  0
SOLID
  5
241
  8
标注
 62
     0
 10
282.0
 20
650.32213642022771
 30
0.0
 11
282.0
 21
644.32213642022771
 31
0.0
 12
300.0
 22
647.32213642022759
 32
0.0
 13
300.0
 23
647.32213642022759
 33
0.0
  0
SOLID
  5
242
  8
标注
 62
     0
 10
336.0
 20
650.32213642022771
 30
0.0
 11
336.0
 21
644.32213642022771
 31
0.0
 12
318.0
 22
647.32213642022759
 32
0.0
 13
318.0
 23
647.32213642022759
 33
0.0
  0
INSERT
  5
243
  8
0
  6
CONTINUOUS
  2
*U13
 10
0.0
 20
0.0
 30
0.0
  0
POINT
  5
244
  8
DEFPOINTS
 62
     0
 10
300.0
 20
600.0
 30
0.0
  0
POINT
  5
245
  8
DEFPOINTS
 62
     0
 10
318.0
 20
600.0
 30
0.0
  0
POINT
  5
246
  8
DEFPOINTS
 62
     0
 10
318.0
 20
647.32213642022759
 30
0.0
  0
ENDBLK
  5
BC
  8
0
  0
BLOCK
  8
0
  2
*D7
 70
     1
 10
0.0
 20
0.0
 30
0.0
  3
*D7
  1

  0
LINE
  5
22B
  8
标注
 62
     0
 10
-2000.0
 20
606.0
 30
0.0
 11
-2000.0
 21
630.0
 31
0.0
  0
LINE
  5
22C
  8
标注
 62
     0
 10
0.0000000000000004
 20
606.0
 30
0.0
 11
0.0000000000000018
 21
630.0
 31
0.0
  0
LINE
  5
22D
  8
标注
 62
     0
 10
-1982.0
 20
620.0
 30
0.0
 11
-18.0
 21
620.0
 31
0.0
  0
SOLID
  5
22E
  8
标注
 62
     0
 10
-1982.0
 20
623.0
 30
0.0
 11
-1982.0
 21
617.0
 31
0.0
 12
-2000.0
 22
620.0
 32
0.0
 13
-2000.0
 23
620.0
 33
0.0
  0
SOLID
  5
22F
  8
标注
 62
     0
 10
-18.0
 20
623.0
 30
0.0
 11
-18.0
 21
617.0
 31
0.0
 12
0.0000000000000012
 22
620.0
 32
0.0
 13
0.0000000000000012
 23
620.0
 33
0.0
  0
INSERT
  5
230
  8
0
  6
CONTINUOUS
  2
*U11
 10
0.0
 20
0.0
 30
0.0
  0
POINT
  5
231
  8
DEFPOINTS
 62
     0
 10
-2000.0
 20
600.0
 30
0.0
  0
POINT
  5
232
  8
DEFPOINTS
 62
     0
 10
0.0
 20
600.0
 30
0.0
  0
POINT
  5
233
  8
DEFPOINTS
 62
     0
 10
0.0000000000000012
 20
620.0
 30
0.0
  0
ENDBLK
  5
CC
  8
0
  0
BLOCK
  8
0
  2
*D8
 70
     1
 10
0.0
 20
0.0
 30
0.0
  3
*D8
  1

  0
LINE
  5
234
  8
标注
 62
     0
 10
6.0
 20
600.0
 30
0.0
 11
30.000000000000139
 21
600.0
 31
0.0
  0
LINE
  5
235
  8
标注
 62
     0
 10
6.0
 20
-0.0000000000000017
 30
0.0
 11
30.0
 21
-0.0000000000000085
 31
0.0
  0
LINE
  5
236
  8
标注
 62
     0
 10
20.000000000000131
 20
582.0
 30
0.0
 11
20.0
 21
18.0
 31
0.0
  0
SOLID
  5
237
  8
标注
 62
     0
 10
17.000000000000131
 20
582.0
 30
0.0
 11
23.000000000000131
 21
582.0
 31
0.0
 12
20.000000000000139
 22
600.0
 32
0.0
 13
20.000000000000139
 23
600.0
 33
0.0
  0
SOLID
  5
238
  8
标注
 62
     0
 10
17.0
 20
18.0
 30
0.0
 11
23.0
 21
18.0
 31
0.0
 12
20.0
 22
-0.0000000000000057
 32
0.0
 13
20.0
 23
-0.0000000000000057
 33
0.0
  0
INSERT
  5
239
  8
0
  6
CONTINUOUS
  2
*U12
 10
0.0
 20
0.0
 30
0.0
  0
POINT
  5
23A
  8
DEFPOINTS
 62
     0
 10
0.0
 20
600.0
 30
0.0
  0
POINT
  5
23B
  8
DEFPOINTS
 62
     0
 10
0.0
 20
0.0
 30
0.0
  0
POINT
  5
23C
  8
DEFPOINTS
 62
     0
 10
20.0
 20
-0.0000000000000057
 30
0.0
  0
ENDBLK
  5
D9
  8
0
  0
BLOCK
  8
0
  2
*D10
 70
     1
 10
0.0
 20
0.0
 30
0.0
  3
*D10
  1

  0
LINE
  5
335
  8
0
  6
CONTINUOUS
 62
     0
 10
300.0
 20
606.0
 30
0.0
 11
300.0
 21
630.0
 31
0.0
  0
LINE
  5
336
  8
0
  6
CONTINUOUS
 62
     0
 10
318.0
 20
606.0
 30
0.0
 11
318.0
 21
630.0
 31
0.0
  0
LINE
  5
337
  8
0
  6
CONTINUOUS
 62
     0
 10
282.0
 20
620.0
 30
0.0
 11
264.0
 21
620.0
 31
0.0
  0
LINE
  5
338
  8
0
  6
CONTINUOUS
 62
     0
 10
336.0
 20
620.0
 30
0.0
 11
464.0
 21
620.0
 31
0.0
  0
SOLID
  5
339
  8
0
  6
CONTINUOUS
 62
     0
 10
282.0
 20
623.0
 30
0.0
 11
282.0
 21
617.0
 31
0.0
 12
300.0
 22
620.0
 32
0.0
 13
300.0
 23
620.0
 33
0.0
  0
SOLID
  5
33A
  8
0
  6
CONTINUOUS
 62
     0
 10
336.0
 20
623.0
 30
0.0
 11
336.0
 21
617.0
 31
0.0
 12
318.0
 22
620.0
 32
0.0
 13
318.0
 23
620.0
 33
0.0
  0
INSERT
  5
33B
  8
0
  6
CONTINUOUS
  2
*U14
 10
0.0
 20
0.0
 30
0.0
  0
POINT
  5
33C
  8
DEFPOINTS
  6
CONTINUOUS
 62
     0
 10
300.0
 20
600.0
 30
0.0
  0
POINT
  5
33D
  8
DEFPOINTS
  6
CONTINUOUS
 62
     0
 10
318.0
 20
600.0
 30
0.0
  0
POINT
  5
33E
  8
DEFPOINTS
  6
CONTINUOUS
 62
     0
 10
318.0
 20
620.0
 30
0.0
  0
ENDBLK
  5
2A9
  8
0
  0
BLOCK
  8
0
  2
*U11
 70
     1
 10
0.0
 20
0.0
 30
0.0
  3
*U11
  1

  0
TEXT
  5
4BC
  8
标注
  6
CONTINUOUS
 62
     0
 10
-1061.5
 20
630.0
 30
0.0
 40
18.0
  1
2000.0000
  0
ENDBLK
  5
4BE
  8
0
  0
BLOCK
  8
0
  2
*U12
 70
     1
 10
0.0
 20
0.0
 30
0.0
  3
*U12
  1

  0
TEXT
  5
4C0
  8
标注
  6
CONTINUOUS
 62
     0
 10
30.000000000000021
 20
291.0
 30
0.0
 40
18.0
  1
600.0000
  0
ENDBLK
  5
4C2
  8
0
  0
BLOCK
  8
0
  2
*U13
 70
     1
 10
0.0
 20
0.0
 30
0.0
  3
*U13
  1

  0
TEXT
  5
4C4
  8
标注
  6
CONTINUOUS
 62
     0
 10
364.0
 20
657.32213642022771
 30
0.0
 40
18.0
  1
18.0000
  0
ENDBLK
  5
4C6
  8
0
  0
BLOCK
  8
0
  2
*U14
 70
     1
 10
0.0
 20
0.0
 30
0.0
  3
*U14
  1

  0
TEXT
  5
4C8
  8
0
  6
CONTINUOUS
 62
     0
 10
364.0
 20
630.0
 30
0.0
 40
18.0
  1
18.0000
  0
ENDBLK
  5
4CA
  8
0
  0
ENDSEC
  0
SECTION
  2
ENTITIES
  0
POLYLINE
  5
A3
  8
实线
 66
     1
 10
0.0
 20
0.0
 30
0.0
 70
     1
  0
VERTEX
  5
4A9
  8
实线
 10
-2000.0
 20
0.0
 30
0.0
  0
VERTEX
  5
4AA
  8
实线
 10
-2000.0
 20
600.0
 30
0.0
  0
VERTEX
  5
4AB
  8
实线
 10
0.0
 20
600.0
 30
0.0
  0
VERTEX
  5
4AC
  8
实线
 10
0.0
 20
0.0
 30
0.0
  0
SEQEND
  5
4AD
  8
实线
  0
POLYLINE
  5
A9
  8
实线
 66
     1
 10
0.0
 20
0.0
 30
0.0
 70
     1
  0
VERTEX
  5
4AE
  8
实线
 10
300.0
 20
0.0
 30
0.0
  0
VERTEX
  5
4AF
  8
实线
 10
300.0
 20
600.0
 30
0.0
  0
VERTEX
  5
4B0
  8
实线
 10
318.0
 20
600.0
 30
0.0
  0
VERTEX
  5
4B1
  8
实线
 10
318.0
 20
0.0
 30
0.0
  0
SEQEND
  5
4B2
  8
实线
  0
POLYLINE
  5
AF
  8
实线
 66
     1
 10
0.0
 20
0.0
 30
0.0
 70
     1
  0
VERTEX
  5
4B3
  8
实线
 10
-2000.0
 20
-318.0
 30
0.0
  0
VERTEX
  5
4B4
  8
实线
 10
-2000.0
 20
-300.0
 30
0.0
  0
VERTEX
  5
4B5
  8
实线
 10
0.0
 20
-300.0
 30
0.0
  0
VERTEX
  5
4B6
  8
实线
 10
0.0
 20
-318.0
 30
0.0
  0
SEQEND
  5
4B7
  8
实线
  0
DIMENSION
  5
B5
  8
标注
  2
*D7
 10
0.0000000000000012
 20
620.0
 30
0.0
 11
-1000.0
 21
639.0
 31
0.0
 70
     1
 13
-2000.0
 23
600.0
 33
0.0
 14
0.0
 24
600.0
 34
0.0
  0
DIMENSION
  5
B6
  8
标注
  2
*D8
 10
20.0
 20
-0.0000000000000057
 30
0.0
 11
84.000000000000014
 21
300.0
 31
0.0
 70
     1
 13
0.0
 23
600.0
 33
0.0
 14
0.0
 24
0.0
 34
0.0
  0
DIMENSION
  5
2A6
  8
0
  6
CONTINUOUS
  2
*D10
 10
318.0
 20
620.0
 30
0.0
 11
409.0
 21
639.0
 31
0.0
 70
     1
 13
300.0
 23
600.0
 33
0.0
 14
318.0
 24
600.0
 34
0.0
  0
ENDSEC
  0
EOF
