  0
SECTION
  2
HEADER
  9
$ACADVER
  1
AC1009
  9
$INSBASE
 10
0.0
 20
0.0
 30
0.0
  9
$EXTMIN
 10
-1985.0
 20
-318.0
 30
0.0
  9
$EXTMAX
 10
322.0
 20
523.0
 30
0.0
  9
$LIMMIN
 10
0.0
 20
0.0
  9
$LIMMAX
 10
12.0
 20
9.0
  9
$ORTHOMODE
 70
     0
  9
$REGENMODE
 70
     1
  9
$FILLMODE
 70
     1
  9
$QTEXTMODE
 70
     0
  9
$MIRRTEXT
 70
     0
  9
$DRAGMODE
 70
     2
  9
$LTSCALE
 40
1.0
  9
$OSMODE
 70
    37
  9
$ATTMODE
 70
     1
  9
$TEXTSIZE
 40
0.2
  9
$TRACEWID
 40
0.05
  9
$TEXTSTYLE
  7
STANDARD
  9
$CLAYER
  8
实线
  9
$CELTYPE
  6
CONTINUOUS
  9
$CECOLOR
 62
   256
  9
$DIMSCALE
 40
1.0
  9
$DIMASZ
 40
0.18
  9
$DIMEXO
 40
0.0625
  9
$DIMDLI
 40
0.38
  9
$DIMRND
 40
0.0
  9
$DIMDLE
 40
0.0
  9
$DIMEXE
 40
0.18
  9
$DIMTP
 40
0.0
  9
$DIMTM
 40
0.0
  9
$DIMTXT
 40
0.18
  9
$DIMCEN
 40
0.09
  9
$DIMTSZ
 40
0.0
  9
$DIMTOL
 70
     0
  9
$DIMLIM
 70
     0
  9
$DIMTIH
 70
     1
  9
$DIMTOH
 70
     1
  9
$DIMSE1
 70
     0
  9
$DIMSE2
 70
     0
  9
$DIMTAD
 70
     0
  9
$DIMZIN
 70
     0
  9
$DIMBLK
  1

  9
$DIMASO
 70
     1
  9
$DIMSHO
 70
     1
  9
$DIMPOST
  1

  9
$DIMAPOST
  1

  9
$DIMALT
 70
     0
  9
$DIMALTD
 70
     2
  9
$DIMALTF
 40
25.399999999999999
  9
$DIMLFAC
 40
1.0
  9
$DIMTOFL
 70
     0
  9
$DIMTVP
 40
0.0
  9
$DIMTIX
 70
     0
  9
$DIMSOXD
 70
     0
  9
$DIMSAH
 70
     0
  9
$DIMBLK1
  1

  9
$DIMBLK2
  1

  9
$DIMSTYLE
  2
STANDARD
  9
$DIMCLRD
 70
     0
  9
$DIMCLRE
 70
     0
  9
$DIMCLRT
 70
     0
  9
$DIMTFAC
 40
1.0
  9
$DIMGAP
 40
0.09
  9
$LUNITS
 70
     2
  9
$LUPREC
 70
     4
  9
$SKETCHINC
 40
0.1
  9
$FILLETRAD
 40
0.0
  9
$AUNITS
 70
     0
  9
$AUPREC
 70
     0
  9
$MENU
  1
.
  9
$ELEVATION
 40
0.0
  9
$PELEVATION
 40
0.0
  9
$THICKNESS
 40
0.0
  9
$LIMCHECK
 70
     0
  9
$BLIPMODE
 70
     0
  9
$CHAMFERA
 40
0.0
  9
$CHAMFERB
 40
0.0
  9
$SKPOLY
 70
     0
  9
$TDCREATE
 40
2455630.5430649542
  9
$TDUPDATE
 40
2455630.5465436918
  9
$TDINDWG
 40
0.0034827083
  9
$TDUSRTIMER
 40
0.0034827083
  9
$USRTIMER
 70
     1
  9
$ANGBASE
 50
0.0
  9
$ANGDIR
 70
     0
  9
$PDMODE
 70
     0
  9
$PDSIZE
 40
0.0
  9
$PLINEWID
 40
0.0
  9
$COORDS
 70
     1
  9
$SPLFRAME
 70
     0
  9
$SPLINETYPE
 70
     6
  9
$SPLINESEGS
 70
     8
  9
$ATTDIA
 70
     0
  9
$ATTREQ
 70
     1
  9
$HANDLING
 70
     1
  9
$HANDSEED
  5
2B7
  9
$SURFTAB1
 70
     6
  9
$SURFTAB2
 70
     6
  9
$SURFTYPE
 70
     6
  9
$SURFU
 70
     6
  9
$SURFV
 70
     6
  9
$UCSNAME
  2

  9
$UCSORG
 10
0.0
 20
0.0
 30
0.0
  9
$UCSXDIR
 10
1.0
 20
0.0
 30
0.0
  9
$UCSYDIR
 10
0.0
 20
1.0
 30
0.0
  9
$PUCSNAME
  2

  9
$PUCSORG
 10
0.0
 20
0.0
 30
0.0
  9
$PUCSXDIR
 10
1.0
 20
0.0
 30
0.0
  9
$PUCSYDIR
 10
0.0
 20
1.0
 30
0.0
  9
$USERI1
 70
     0
  9
$USERI2
 70
     0
  9
$USERI3
 70
     0
  9
$USERI4
 70
     0
  9
$USERI5
 70
     0
  9
$USERR1
 40
0.0
  9
$USERR2
 40
0.0
  9
$USERR3
 40
0.0
  9
$USERR4
 40
0.0
  9
$USERR5
 40
0.0
  9
$WORLDVIEW
 70
     1
  9
$SHADEDGE
 70
     3
  9
$SHADEDIF
 70
    70
  9
$TILEMODE
 70
     1
  9
$MAXACTVP
 70
    64
  9
$PLIMCHECK
 70
     0
  9
$PEXTMIN
 10
1.0000000000000000E+020
 20
1.0000000000000000E+020
 30
1.0000000000000000E+020
  9
$PEXTMAX
 10
-1.0000000000000000E+020
 20
-1.0000000000000000E+020
 30
-1.0000000000000000E+020
  9
$PLIMMIN
 10
0.0
 20
0.0
  9
$PLIMMAX
 10
12.0
 20
9.0
  9
$UNITMODE
 70
     0
  9
$VISRETAIN
 70
     1
  9
$PLINEGEN
 70
     0
  9
$PSLTSCALE
 70
     1
  0
ENDSEC
  0
SECTION
  2
TABLES
  0
TABLE
  2
VPORT
 70
     1
  0
VPORT
  2
*ACTIVE
 70
     0
 10
0.0
 20
0.0
 11
1.0
 21
1.0
 12
-838.74290690302996
 22
75.293417395787628
 13
0.0
 23
0.0
 14
1.0
 24
1.0
 15
0.0
 25
0.0
 16
0.0
 26
0.0
 36
1.0
 17
0.0
 27
0.0
 37
0.0
 40
1134.605236802339
 41
2.2910714285714282
 42
50.0
 43
0.0
 44
0.0
 50
0.0
 51
0.0
 71
     0
 72
  1000
 73
     1
 74
     3
 75
     0
 76
     0
 77
     0
 78
     0
  0
ENDTAB
  0
TABLE
  2
LTYPE
 70
     3
  0
LTYPE
  2
CONTINUOUS
 70
     0
  3
Solid line
 72
    65
 73
     0
 40
0.0
  0
LTYPE
  2
CENTER
 70
     0
  3
Center ____ _ ____ _ ____ _ ____ _ ____ _ ____
 72
    65
 73
     4
 40
2.0
 49
1.25
 49
-0.25
 49
0.25
 49
-0.25
  0
LTYPE
  2
DASHED
 70
     0
  3
Dashed __ __ __ __ __ __ __ __ __ __ __ __ __ _
 72
    65
 73
     2
 40
0.75
 49
0.5
 49
-0.25
  0
ENDTAB
  0
TABLE
  2
LAYER
 70
     7
  0
LAYER
  2
0
 70
     0
 62
     7
  6
CONTINUOUS
  0
LAYER
  2
标注
 70
     0
 62
     2
  6
CONTINUOUS
  0
LAYER
  2
DEFPOINTS
 70
     0
 62
     7
  6
CONTINUOUS
  0
LAYER
  2
实线
 70
     0
 62
     7
  6
CONTINUOUS
  0
LAYER
  2
中心线
 70
     4
 62
     3
  6
CENTER
  0
LAYER
  2
虚线
 70
     0
 62
     9
  6
DASHED
  0
LAYER
  2
文字
 70
     0
 62
     7
  6
CONTINUOUS
  0
ENDTAB
  0
TABLE
  2
STYLE
 70
     3
  0
STYLE
  2
STANDARD
 70
     0
 40
0.0
 41
1.0
 50
0.0
 71
     0
 42
0.2
  3
txt
  4

  0
STYLE
  2
ANNOTATIVE
 70
     0
 40
0.0
 41
1.0
 50
0.0
 71
     0
 42
0.2
  3
txt
  4

  0
STYLE
  2

 70
     1
 40
0.0
 41
1.0
 50
0.0
 71
     0
 42
0.2
  3
ltypeshp.shx
  4

  0
ENDTAB
  0
TABLE
  2
VIEW
 70
     0
  0
ENDTAB
  0
TABLE
  2
UCS
 70
     0
  0
ENDTAB
  0
TABLE
  2
APPID
 70
     3
  0
APPID
  2
ACAD
 70
     0
  0
APPID
  2
ACADANNOTATIVE
 70
     0
  0
APPID
  2
ACAD_MLEADERVER
 70
     0
  0
ENDTAB
  0
TABLE
  2
DIMSTYLE
 70
     2
  0
DIMSTYLE
  2
STANDARD
 70
     0
  3

  4

  5

  6

  7

 40
1.0
 41
0.18
 42
0.0625
 43
0.38
 44
0.18
 45
0.0
 46
0.0
 47
0.0
 48
0.0
140
0.18
141
0.09
142
0.0
143
25.399999999999999
144
1.0
145
0.0
146
1.0
147
0.09
 71
     0
 72
     0
 73
     1
 74
     1
 75
     0
 76
     0
 77
     0
 78
     0
170
     0
171
     2
172
     0
173
     0
174
     0
175
     0
176
     0
177
     0
178
     0
  0
DIMSTYLE
  2
ANNOTATIVE
 70
     0
  3

  4

  5

  6

  7

 40
1.0
 41
0.18
 42
0.0625
 43
0.38
 44
0.18
 45
0.0
 46
0.0
 47
0.0
 48
0.0
140
0.18
141
0.09
142
0.0
143
25.399999999999999
144
1.0
145
0.0
146
1.0
147
0.09
 71
     0
 72
     0
 73
     1
 74
     1
 75
     0
 76
     0
 77
     0
 78
     0
170
     0
171
     2
172
     0
173
     0
174
     0
175
     0
176
     0
177
     0
178
     0
  0
ENDTAB
  0
ENDSEC
  0
SECTION
  2
BLOCKS
  0
BLOCK
  8
0
  2
$MODEL_SPACE
 70
     0
 10
0.0
 20
0.0
 30
0.0
  3
$MODEL_SPACE
  1

  0
ENDBLK
  5
6D
  8
0
  0
BLOCK
 67
     1
  8
0
  2
$PAPER_SPACE
 70
     0
 10
0.0
 20
0.0
 30
0.0
  3
$PAPER_SPACE
  1

  0
ENDBLK
  5
69
 67
     1
  8
0
  0
BLOCK
  8
0
  2
*D0
 70
     1
 10
0.0
 20
0.0
 30
0.0
  3
*D0
  1

  0
LINE
  5
72
  8
标注
 10
-1864.0
 20
471.0
 30
0.0
 11
-1864.0
 21
515.0
 31
0.0
  0
LINE
  5
73
  8
标注
 10
0.0
 20
471.0
 30
0.0
 11
0.0
 21
515.0
 31
0.0
  0
LINE
  5
74
  8
标注
 10
-1864.0
 20
495.0
 30
0.0
 11
0.0
 21
495.0
 31
0.0
  0
SOLID
  5
75
  8
标注
 10
-1861.0
 20
492.0
 30
0.0
 11
-1861.0
 21
498.0
 31
0.0
 12
-1864.0
 22
495.0
 32
0.0
 13
-1864.0
 23
495.0
 33
0.0
  0
SOLID
  5
76
  8
标注
 10
-3.0
 20
492.0
 30
0.0
 11
-3.0
 21
498.0
 31
0.0
 12
0.0
 22
495.0
 32
0.0
 13
0.0
 23
495.0
 33
0.0
  0
INSERT
  5
78
  8
0
  2
*U1
 10
0.0
 20
0.0
 30
0.0
  0
POINT
  5
7A
  8
DEFPOINTS
 10
-1864.0
 20
465.0
 30
0.0
  0
POINT
  5
7B
  8
DEFPOINTS
 10
0.0
 20
465.0
 30
0.0
  0
POINT
  5
7C
  8
DEFPOINTS
 10
0.0
 20
495.0
 30
0.0
  0
ENDBLK
  5
7D
  8
0
  0
BLOCK
  8
0
  2
*U1
 70
     1
 10
0.0
 20
0.0
 30
0.0
  3
*U1
  1

  0
TEXT
  5
7F
  8
标注
 10
-968.0
 20
505.0
 30
0.0
 40
18.0
  1
1864
  0
ENDBLK
  5
81
  8
0
  0
BLOCK
  8
0
  2
*D2
 70
     1
 10
0.0
 20
0.0
 30
0.0
  3
*D2
  1

  0
LINE
  5
84
  8
标注
 10
6.0
 20
465.0
 30
0.0
 11
50.0
 21
465.0
 31
0.0
  0
LINE
  5
85
  8
标注
 10
6.0
 20
0.0
 30
0.0
 11
50.0
 21
0.0
 31
0.0
  0
LINE
  5
86
  8
标注
 10
30.0
 20
465.0
 30
0.0
 11
30.0
 21
0.0
 31
0.0
  0
SOLID
  5
87
  8
标注
 10
27.0
 20
462.0
 30
0.0
 11
33.0
 21
462.0
 31
0.0
 12
30.0
 22
465.0
 32
0.0
 13
30.0
 23
465.0
 33
0.0
  0
SOLID
  5
88
  8
标注
 10
27.0
 20
3.0
 30
0.0
 11
33.0
 21
3.0
 31
0.0
 12
30.0
 22
0.0
 32
0.0
 13
30.0
 23
0.0
 33
0.0
  0
INSERT
  5
8A
  8
0
  2
*U3
 10
0.0
 20
0.0
 30
0.0
  0
POINT
  5
8B
  8
DEFPOINTS
 10
0.0
 20
465.0
 30
0.0
  0
POINT
  5
8C
  8
DEFPOINTS
 10
0.0
 20
0.0
 30
0.0
  0
POINT
  5
8D
  8
DEFPOINTS
 10
30.0
 20
0.0
 30
0.0
  0
ENDBLK
  5
8E
  8
0
  0
BLOCK
  8
0
  2
*U3
 70
     1
 10
0.0
 20
0.0
 30
0.0
  3
*U3
  1

  0
TEXT
  5
90
  8
标注
 10
49.0
 20
223.5
 30
0.0
 40
18.0
  1
465
  0
ENDBLK
  5
91
  8
0
  0
BLOCK
  8
0
  2
*D4
 70
     1
 10
0.0
 20
0.0
 30
0.0
  3
*D4
  1

  0
LINE
  5
94
  8
标注
 10
300.0
 20
471.0
 30
0.0
 11
300.0
 21
515.0
 31
0.0
  0
LINE
  5
95
  8
标注
 10
318.0
 20
471.0
 30
0.0
 11
318.0
 21
515.0
 31
0.0
  0
LINE
  5
96
  8
标注
 10
300.0
 20
495.0
 30
0.0
 11
318.0
 21
495.0
 31
0.0
  0
SOLID
  5
97
  8
标注
 10
303.0
 20
492.0
 30
0.0
 11
303.0
 21
498.0
 31
0.0
 12
300.0
 22
495.0
 32
0.0
 13
300.0
 23
495.0
 33
0.0
  0
SOLID
  5
98
  8
标注
 10
315.0
 20
492.0
 30
0.0
 11
315.0
 21
498.0
 31
0.0
 12
318.0
 22
495.0
 32
0.0
 13
318.0
 23
495.0
 33
0.0
  0
INSERT
  5
9A
  8
0
  2
*U5
 10
0.0
 20
0.0
 30
0.0
  0
POINT
  5
9B
  8
DEFPOINTS
 10
300.0
 20
465.0
 30
0.0
  0
POINT
  5
9C
  8
DEFPOINTS
 10
318.0
 20
465.0
 30
0.0
  0
POINT
  5
9D
  8
DEFPOINTS
 10
318.0
 20
495.0
 30
0.0
  0
ENDBLK
  5
9E
  8
0
  0
BLOCK
  8
0
  2
*U5
 70
     1
 10
0.0
 20
0.0
 30
0.0
  3
*U5
  1

  0
TEXT
  5
A0
  8
标注
 10
273.0
 20
505.0
 30
0.0
 40
18.0
  1
18
  0
ENDBLK
  5
A1
  8
0
  0
BLOCK
  8
0
  2
*D6
 70
     1
 10
0.0
 20
0.0
 30
0.0
  3
*D6
  1

  0
LINE
  5
A4
  8
标注
 10
0.0
 20
-6.0
 30
0.0
 11
0.0
 21
-50.0
 31
0.0
  0
LINE
  5
A5
  8
标注
 10
-24.0
 20
258.5
 30
0.0
 11
-24.0
 21
-50.0
 31
0.0
  0
LINE
  5
A6
  8
标注
 10
0.0
 20
-30.0
 30
0.0
 11
-24.0
 21
-30.0
 31
0.0
  0
SOLID
  5
A7
  8
标注
 10
-3.0
 20
-27.0
 30
0.0
 11
-3.0
 21
-33.0
 31
0.0
 12
0.0
 22
-30.0
 32
0.0
 13
0.0
 23
-30.0
 33
0.0
  0
SOLID
  5
A8
  8
标注
 10
-21.0
 20
-27.0
 30
0.0
 11
-21.0
 21
-33.0
 31
0.0
 12
-24.0
 22
-30.0
 32
0.0
 13
-24.0
 23
-30.0
 33
0.0
  0
INSERT
  5
AA
  8
0
  2
*U7
 10
0.0
 20
0.0
 30
0.0
  0
POINT
  5
AB
  8
DEFPOINTS
 10
0.0
 20
0.0
 30
0.0
  0
POINT
  5
AC
  8
DEFPOINTS
 10
-24.0
 20
264.5
 30
0.0
  0
POINT
  5
AD
  8
DEFPOINTS
 10
-24.0
 20
-30.0
 30
0.0
  0
ENDBLK
  5
AE
  8
0
  0
BLOCK
  8
0
  2
*U7
 70
     1
 10
0.0
 20
0.0
 30
0.0
  3
*U7
  1

  0
TEXT
  5
B0
  8
标注
 10
-48.0
 20
-58.0
 30
0.0
 40
18.0
  1
24
  0
ENDBLK
  5
B1
  8
0
  0
BLOCK
  8
0
  2
*D8
 70
     1
 10
0.0
 20
0.0
 30
0.0
  3
*D8
  1

  0
LINE
  5
B4
  8
标注
 10
-24.0
 20
258.5
 30
0.0
 11
-24.0
 21
-50.0
 31
0.0
  0
LINE
  5
B5
  8
标注
 10
-461.5
 20
290.5
 30
0.0
 11
-461.5
 21
-50.0
 31
0.0
  0
LINE
  5
B6
  8
标注
 10
-24.0
 20
-30.0
 30
0.0
 11
-461.5
 21
-30.0
 31
0.0
  0
SOLID
  5
B7
  8
标注
 10
-27.0
 20
-27.0
 30
0.0
 11
-27.0
 21
-33.0
 31
0.0
 12
-24.0
 22
-30.0
 32
0.0
 13
-24.0
 23
-30.0
 33
0.0
  0
SOLID
  5
B8
  8
标注
 10
-458.49999999999989
 20
-27.0
 30
0.0
 11
-458.49999999999989
 21
-33.0
 31
0.0
 12
-461.5
 22
-30.0
 32
0.0
 13
-461.5
 23
-30.0
 33
0.0
  0
INSERT
  5
BA
  8
0
  2
*U9
 10
0.0
 20
0.0
 30
0.0
  0
POINT
  5
BB
  8
DEFPOINTS
 10
-24.0
 20
264.5
 30
0.0
  0
POINT
  5
BC
  8
DEFPOINTS
 10
-461.5
 20
296.5
 30
0.0
  0
POINT
  5
BD
  8
DEFPOINTS
 10
-461.5
 20
-30.0
 30
0.0
  0
ENDBLK
  5
BE
  8
0
  0
BLOCK
  8
0
  2
*U9
 70
     1
 10
0.0
 20
0.0
 30
0.0
  3
*U9
  1

  0
TEXT
  5
C0
  8
标注
 10
-278.75
 20
-58.0
 30
0.0
 40
18.0
  1
437.5
  0
ENDBLK
  5
C1
  8
0
  0
BLOCK
  8
0
  2
*D10
 70
     1
 10
0.0
 20
0.0
 30
0.0
  3
*D10
  1

  0
LINE
  5
C4
  8
标注
 10
-461.5
 20
290.5
 30
0.0
 11
-461.5
 21
-50.0
 31
0.0
  0
LINE
  5
C5
  8
标注
 10
-932.0
 20
290.5
 30
0.0
 11
-932.0
 21
-50.0
 31
0.0
  0
LINE
  5
C6
  8
标注
 10
-461.5
 20
-30.0
 30
0.0
 11
-932.0
 21
-30.0
 31
0.0
  0
SOLID
  5
C7
  8
标注
 10
-464.5
 20
-27.0
 30
0.0
 11
-464.5
 21
-33.0
 31
0.0
 12
-461.5
 22
-30.0
 32
0.0
 13
-461.5
 23
-30.0
 33
0.0
  0
SOLID
  5
C8
  8
标注
 10
-929.0
 20
-27.0
 30
0.0
 11
-929.0
 21
-33.0
 31
0.0
 12
-932.0
 22
-30.0
 32
0.0
 13
-932.0
 23
-30.0
 33
0.0
  0
INSERT
  5
CA
  8
0
  2
*U11
 10
0.0
 20
0.0
 30
0.0
  0
POINT
  5
CB
  8
DEFPOINTS
 10
-461.5
 20
296.5
 30
0.0
  0
POINT
  5
CC
  8
DEFPOINTS
 10
-932.0
 20
296.5
 30
0.0
  0
POINT
  5
CD
  8
DEFPOINTS
 10
-932.0
 20
-30.0
 30
0.0
  0
ENDBLK
  5
CE
  8
0
  0
BLOCK
  8
0
  2
*U11
 70
     1
 10
0.0
 20
0.0
 30
0.0
  3
*U11
  1

  0
TEXT
  5
D0
  8
标注
 10
-732.75
 20
-58.0
 30
0.0
 40
18.0
  1
470.5
  0
ENDBLK
  5
D1
  8
0
  0
BLOCK
  8
0
  2
*D12
 70
     1
 10
0.0
 20
0.0
 30
0.0
  3
*D12
  1

  0
LINE
  5
D4
  8
标注
 10
-932.0
 20
290.5
 30
0.0
 11
-932.0
 21
-50.0
 31
0.0
  0
LINE
  5
D5
  8
标注
 10
-1402.5
 20
290.5
 30
0.0
 11
-1402.5
 21
-50.0
 31
0.0
  0
LINE
  5
D6
  8
标注
 10
-932.0
 20
-30.0
 30
0.0
 11
-1402.5
 21
-30.0
 31
0.0
  0
SOLID
  5
D7
  8
标注
 10
-935.0
 20
-27.0
 30
0.0
 11
-935.0
 21
-33.0
 31
0.0
 12
-932.0
 22
-30.0
 32
0.0
 13
-932.0
 23
-30.0
 33
0.0
  0
SOLID
  5
D8
  8
标注
 10
-1399.5
 20
-27.0
 30
0.0
 11
-1399.5
 21
-33.0
 31
0.0
 12
-1402.5
 22
-30.0
 32
0.0
 13
-1402.5
 23
-30.0
 33
0.0
  0
INSERT
  5
DA
  8
0
  2
*U13
 10
0.0
 20
0.0
 30
0.0
  0
POINT
  5
DB
  8
DEFPOINTS
 10
-932.0
 20
296.5
 30
0.0
  0
POINT
  5
DC
  8
DEFPOINTS
 10
-1402.5
 20
296.5
 30
0.0
  0
POINT
  5
DD
  8
DEFPOINTS
 10
-1402.5
 20
-30.0
 30
0.0
  0
ENDBLK
  5
DE
  8
0
  0
BLOCK
  8
0
  2
*U13
 70
     1
 10
0.0
 20
0.0
 30
0.0
  3
*U13
  1

  0
TEXT
  5
E0
  8
标注
 10
-1203.25
 20
-58.0
 30
0.0
 40
18.0
  1
470.5
  0
ENDBLK
  5
E1
  8
0
  0
BLOCK
  8
0
  2
*D14
 70
     1
 10
0.0
 20
0.0
 30
0.0
  3
*D14
  1

  0
LINE
  5
E4
  8
标注
 10
-1402.5
 20
290.5
 30
0.0
 11
-1402.5
 21
-50.0
 31
0.0
  0
LINE
  5
E5
  8
标注
 10
-1840.0
 20
258.5
 30
0.0
 11
-1840.0
 21
-50.0
 31
0.0
  0
LINE
  5
E6
  8
标注
 10
-1402.5
 20
-30.0
 30
0.0
 11
-1840.0
 21
-30.0
 31
0.0
  0
SOLID
  5
E7
  8
标注
 10
-1405.5
 20
-27.0
 30
0.0
 11
-1405.5
 21
-33.0
 31
0.0
 12
-1402.5
 22
-30.0
 32
0.0
 13
-1402.5
 23
-30.0
 33
0.0
  0
SOLID
  5
E8
  8
标注
 10
-1837.0
 20
-27.0
 30
0.0
 11
-1837.0
 21
-33.0
 31
0.0
 12
-1840.0
 22
-30.0
 32
0.0
 13
-1840.0
 23
-30.0
 33
0.0
  0
INSERT
  5
EA
  8
0
  2
*U15
 10
0.0
 20
0.0
 30
0.0
  0
POINT
  5
EB
  8
DEFPOINTS
 10
-1402.5
 20
296.5
 30
0.0
  0
POINT
  5
EC
  8
DEFPOINTS
 10
-1840.0
 20
264.5
 30
0.0
  0
POINT
  5
ED
  8
DEFPOINTS
 10
-1840.0
 20
-30.0
 30
0.0
  0
ENDBLK
  5
EE
  8
0
  0
BLOCK
  8
0
  2
*U15
 70
     1
 10
0.0
 20
0.0
 30
0.0
  3
*U15
  1

  0
TEXT
  5
F0
  8
标注
 10
-1657.25
 20
-58.0
 30
0.0
 40
18.0
  1
437.5
  0
ENDBLK
  5
F1
  8
0
  0
BLOCK
  8
0
  2
*D16
 70
     1
 10
0.0
 20
0.0
 30
0.0
  3
*D16
  1

  0
LINE
  5
F4
  8
标注
 10
-1840.0
 20
258.5
 30
0.0
 11
-1840.0
 21
-50.0
 31
0.0
  0
LINE
  5
F5
  8
标注
 10
-1864.0
 20
-6.0
 30
0.0
 11
-1864.0
 21
-50.0
 31
0.0
  0
LINE
  5
F6
  8
标注
 10
-1840.0
 20
-30.0
 30
0.0
 11
-1864.0
 21
-30.0
 31
0.0
  0
SOLID
  5
F7
  8
标注
 10
-1843.0
 20
-27.0
 30
0.0
 11
-1843.0
 21
-33.0
 31
0.0
 12
-1840.0
 22
-30.0
 32
0.0
 13
-1840.0
 23
-30.0
 33
0.0
  0
SOLID
  5
F8
  8
标注
 10
-1861.0
 20
-27.0
 30
0.0
 11
-1861.0
 21
-33.0
 31
0.0
 12
-1864.0
 22
-30.0
 32
0.0
 13
-1864.0
 23
-30.0
 33
0.0
  0
INSERT
  5
FA
  8
0
  2
*U17
 10
0.0
 20
0.0
 30
0.0
  0
POINT
  5
FB
  8
DEFPOINTS
 10
-1840.0
 20
264.5
 30
0.0
  0
POINT
  5
FC
  8
DEFPOINTS
 10
-1864.0
 20
0.0
 30
0.0
  0
POINT
  5
FD
  8
DEFPOINTS
 10
-1864.0
 20
-30.0
 30
0.0
  0
ENDBLK
  5
FE
  8
0
  0
BLOCK
  8
0
  2
*U17
 70
     1
 10
0.0
 20
0.0
 30
0.0
  3
*U17
  1

  0
TEXT
  5
100
  8
标注
 10
-1888.0
 20
-58.0
 30
0.0
 40
18.0
  1
24
  0
ENDBLK
  5
101
  8
0
  0
BLOCK
  8
0
  2
*D18
 70
     1
 10
0.0
 20
0.0
 30
0.0
  3
*D18
  1

  0
LINE
  5
104
  8
标注
 10
-1870.0
 20
0.0
 30
0.0
 11
-1914.0
 21
0.0
 31
0.0
  0
LINE
  5
105
  8
标注
 10
-467.49999999999989
 20
168.5
 30
0.0
 11
-1914.0
 21
168.5
 31
0.0
  0
LINE
  5
106
  8
标注
 10
-1894.0
 20
0.0
 30
0.0
 11
-1894.0
 21
168.5
 31
0.0
  0
SOLID
  5
107
  8
标注
 10
-1891.0
 20
3.0
 30
0.0
 11
-1897.0
 21
3.0
 31
0.0
 12
-1894.0
 22
0.0
 32
0.0
 13
-1894.0
 23
0.0
 33
0.0
  0
SOLID
  5
108
  8
标注
 10
-1891.0
 20
165.5
 30
0.0
 11
-1897.0
 21
165.5
 31
0.0
 12
-1894.0
 22
168.5
 32
0.0
 13
-1894.0
 23
168.5
 33
0.0
  0
INSERT
  5
10A
  8
0
  2
*U19
 10
0.0
 20
0.0
 30
0.0
  0
POINT
  5
10B
  8
DEFPOINTS
 10
-1864.0
 20
0.0
 30
0.0
  0
POINT
  5
10C
  8
DEFPOINTS
 10
-461.5
 20
168.5
 30
0.0
  0
POINT
  5
10D
  8
DEFPOINTS
 10
-1894.0
 20
168.5
 30
0.0
  0
ENDBLK
  5
10E
  8
0
  0
BLOCK
  8
0
  2
*U19
 70
     1
 10
0.0
 20
0.0
 30
0.0
  3
*U19
  1

  0
TEXT
  5
110
  8
标注
 10
-1985.0
 20
75.25
 30
0.0
 40
18.0
  1
168.5
  0
ENDBLK
  5
111
  8
0
  0
BLOCK
  8
0
  2
*D20
 70
     1
 10
0.0
 20
0.0
 30
0.0
  3
*D20
  1

  0
LINE
  5
114
  8
标注
 10
-467.49999999999989
 20
168.5
 30
0.0
 11
-1914.0
 21
168.5
 31
0.0
  0
LINE
  5
115
  8
标注
 10
-30.0
 20
200.5
 30
0.0
 11
-1914.0
 21
200.5
 31
0.0
  0
LINE
  5
116
  8
标注
 10
-1894.0
 20
168.5
 30
0.0
 11
-1894.0
 21
200.5
 31
0.0
  0
SOLID
  5
117
  8
标注
 10
-1891.0
 20
171.5
 30
0.0
 11
-1897.0
 21
171.5
 31
0.0
 12
-1894.0
 22
168.5
 32
0.0
 13
-1894.0
 23
168.5
 33
0.0
  0
SOLID
  5
118
  8
标注
 10
-1891.0
 20
197.5
 30
0.0
 11
-1897.0
 21
197.5
 31
0.0
 12
-1894.0
 22
200.5
 32
0.0
 13
-1894.0
 23
200.5
 33
0.0
  0
INSERT
  5
11A
  8
0
  2
*U21
 10
0.0
 20
0.0
 30
0.0
  0
POINT
  5
11B
  8
DEFPOINTS
 10
-461.5
 20
168.5
 30
0.0
  0
POINT
  5
11C
  8
DEFPOINTS
 10
-24.0
 20
200.5
 30
0.0
  0
POINT
  5
11D
  8
DEFPOINTS
 10
-1894.0
 20
200.5
 30
0.0
  0
ENDBLK
  5
11E
  8
0
  0
BLOCK
  8
0
  2
*U21
 70
     1
 10
0.0
 20
0.0
 30
0.0
  3
*U21
  1

  0
TEXT
  5
120
  8
标注
 10
-1985.0
 20
175.5
 30
0.0
 40
18.0
  1
32
  0
ENDBLK
  5
121
  8
0
  0
BLOCK
  8
0
  2
*D22
 70
     1
 10
0.0
 20
0.0
 30
0.0
  3
*D22
  1

  0
LINE
  5
124
  8
标注
 10
-30.0
 20
200.5
 30
0.0
 11
-1914.0
 21
200.5
 31
0.0
  0
LINE
  5
125
  8
标注
 10
-30.0
 20
264.5
 30
0.0
 11
-1914.0
 21
264.5
 31
0.0
  0
LINE
  5
126
  8
标注
 10
-1894.0
 20
200.5
 30
0.0
 11
-1894.0
 21
264.5
 31
0.0
  0
SOLID
  5
127
  8
标注
 10
-1891.0
 20
203.5
 30
0.0
 11
-1897.0
 21
203.5
 31
0.0
 12
-1894.0
 22
200.5
 32
0.0
 13
-1894.0
 23
200.5
 33
0.0
  0
SOLID
  5
128
  8
标注
 10
-1891.0
 20
261.5
 30
0.0
 11
-1897.0
 21
261.5
 31
0.0
 12
-1894.0
 22
264.5
 32
0.0
 13
-1894.0
 23
264.5
 33
0.0
  0
INSERT
  5
12A
  8
0
  2
*U23
 10
0.0
 20
0.0
 30
0.0
  0
POINT
  5
12B
  8
DEFPOINTS
 10
-24.0
 20
200.5
 30
0.0
  0
POINT
  5
12C
  8
DEFPOINTS
 10
-24.0
 20
264.5
 30
0.0
  0
POINT
  5
12D
  8
DEFPOINTS
 10
-1894.0
 20
264.5
 30
0.0
  0
ENDBLK
  5
12E
  8
0
  0
BLOCK
  8
0
  2
*U23
 70
     1
 10
0.0
 20
0.0
 30
0.0
  3
*U23
  1

  0
TEXT
  5
130
  8
标注
 10
-1985.0
 20
223.5
 30
0.0
 40
18.0
  1
64
  0
ENDBLK
  5
131
  8
0
  0
BLOCK
  8
0
  2
*D24
 70
     1
 10
0.0
 20
0.0
 30
0.0
  3
*D24
  1

  0
LINE
  5
134
  8
标注
 10
-30.0
 20
264.5
 30
0.0
 11
-1914.0
 21
264.5
 31
0.0
  0
LINE
  5
135
  8
标注
 10
-467.49999999999989
 20
296.5
 30
0.0
 11
-1914.0
 21
296.5
 31
0.0
  0
LINE
  5
136
  8
标注
 10
-1894.0
 20
264.5
 30
0.0
 11
-1894.0
 21
296.5
 31
0.0
  0
SOLID
  5
137
  8
标注
 10
-1891.0
 20
267.5
 30
0.0
 11
-1897.0
 21
267.5
 31
0.0
 12
-1894.0
 22
264.5
 32
0.0
 13
-1894.0
 23
264.5
 33
0.0
  0
SOLID
  5
138
  8
标注
 10
-1891.0
 20
293.5
 30
0.0
 11
-1897.0
 21
293.5
 31
0.0
 12
-1894.0
 22
296.5
 32
0.0
 13
-1894.0
 23
296.5
 33
0.0
  0
INSERT
  5
13A
  8
0
  2
*U25
 10
0.0
 20
0.0
 30
0.0
  0
POINT
  5
13B
  8
DEFPOINTS
 10
-24.0
 20
264.5
 30
0.0
  0
POINT
  5
13C
  8
DEFPOINTS
 10
-461.5
 20
296.5
 30
0.0
  0
POINT
  5
13D
  8
DEFPOINTS
 10
-1894.0
 20
296.5
 30
0.0
  0
ENDBLK
  5
13E
  8
0
  0
BLOCK
  8
0
  2
*U25
 70
     1
 10
0.0
 20
0.0
 30
0.0
  3
*U25
  1

  0
TEXT
  5
140
  8
标注
 10
-1985.0
 20
271.5
 30
0.0
 40
18.0
  1
32
  0
ENDBLK
  5
141
  8
0
  0
BLOCK
  8
0
  2
*D26
 70
     1
 10
0.0
 20
0.0
 30
0.0
  3
*D26
  1

  0
LINE
  5
144
  8
标注
 10
-467.49999999999989
 20
296.5
 30
0.0
 11
-1914.0
 21
296.5
 31
0.0
  0
LINE
  5
145
  8
标注
 10
-1870.0
 20
465.0
 30
0.0
 11
-1914.0
 21
465.0
 31
0.0
  0
LINE
  5
146
  8
标注
 10
-1894.0
 20
296.5
 30
0.0
 11
-1894.0
 21
465.0
 31
0.0
  0
SOLID
  5
147
  8
标注
 10
-1891.0
 20
299.5
 30
0.0
 11
-1897.0
 21
299.5
 31
0.0
 12
-1894.0
 22
296.5
 32
0.0
 13
-1894.0
 23
296.5
 33
0.0
  0
SOLID
  5
148
  8
标注
 10
-1891.0
 20
462.0
 30
0.0
 11
-1897.0
 21
462.0
 31
0.0
 12
-1894.0
 22
465.0
 32
0.0
 13
-1894.0
 23
465.0
 33
0.0
  0
INSERT
  5
14A
  8
0
  2
*U27
 10
0.0
 20
0.0
 30
0.0
  0
POINT
  5
14B
  8
DEFPOINTS
 10
-461.5
 20
296.5
 30
0.0
  0
POINT
  5
14C
  8
DEFPOINTS
 10
-1864.0
 20
465.0
 30
0.0
  0
POINT
  5
14D
  8
DEFPOINTS
 10
-1894.0
 20
465.0
 30
0.0
  0
ENDBLK
  5
14E
  8
0
  0
BLOCK
  8
0
  2
*U27
 70
     1
 10
0.0
 20
0.0
 30
0.0
  3
*U27
  1

  0
TEXT
  5
150
  8
标注
 10
-1985.0
 20
371.75
 30
0.0
 40
18.0
  1
168.5
  0
ENDBLK
  5
151
  8
0
  0
BLOCK
  8
0
  2
*D28
 70
     1
 10
0.0
 20
0.0
 30
0.0
  3
*D28
  1

  0
LINE
  5
154
  8
标注
 10
303.0
 20
0.0
 30
0.0
 11
259.0
 21
0.0
 31
0.0
  0
LINE
  5
155
  8
标注
 10
303.0
 20
168.5
 30
0.0
 11
259.0
 21
168.5
 31
0.0
  0
LINE
  5
156
  8
标注
 10
279.0
 20
0.0
 30
0.0
 11
279.0
 21
168.5
 31
0.0
  0
SOLID
  5
157
  8
标注
 10
282.0
 20
3.0
 30
0.0
 11
276.0
 21
3.0
 31
0.0
 12
279.0
 22
0.0
 32
0.0
 13
279.0
 23
0.0
 33
0.0
  0
SOLID
  5
158
  8
标注
 10
282.0
 20
165.5
 30
0.0
 11
276.0
 21
165.5
 31
0.0
 12
279.0
 22
168.5
 32
0.0
 13
279.0
 23
168.5
 33
0.0
  0
INSERT
  5
15A
  8
0
  2
*U29
 10
0.0
 20
0.0
 30
0.0
  0
POINT
  5
15B
  8
DEFPOINTS
 10
309.0
 20
0.0
 30
0.0
  0
POINT
  5
15C
  8
DEFPOINTS
 10
309.0
 20
168.5
 30
0.0
  0
POINT
  5
15D
  8
DEFPOINTS
 10
279.0
 20
168.5
 30
0.0
  0
ENDBLK
  5
15E
  8
0
  0
BLOCK
  8
0
  2
*U29
 70
     1
 10
0.0
 20
0.0
 30
0.0
  3
*U29
  1

  0
TEXT
  5
160
  8
标注
 10
188.0
 20
75.25
 30
0.0
 40
18.0
  1
168.5
  0
ENDBLK
  5
161
  8
0
  0
BLOCK
  8
0
  2
*D30
 70
     1
 10
0.0
 20
0.0
 30
0.0
  3
*D30
  1

  0
LINE
  5
164
  8
标注
 10
303.0
 20
168.5
 30
0.0
 11
259.0
 21
168.5
 31
0.0
  0
LINE
  5
165
  8
标注
 10
303.0
 20
200.5
 30
0.0
 11
259.0
 21
200.5
 31
0.0
  0
LINE
  5
166
  8
标注
 10
279.0
 20
168.5
 30
0.0
 11
279.0
 21
200.5
 31
0.0
  0
SOLID
  5
167
  8
标注
 10
282.0
 20
171.5
 30
0.0
 11
276.0
 21
171.5
 31
0.0
 12
279.0
 22
168.5
 32
0.0
 13
279.0
 23
168.5
 33
0.0
  0
SOLID
  5
168
  8
标注
 10
282.0
 20
197.5
 30
0.0
 11
276.0
 21
197.5
 31
0.0
 12
279.0
 22
200.5
 32
0.0
 13
279.0
 23
200.5
 33
0.0
  0
INSERT
  5
16A
  8
0
  2
*U31
 10
0.0
 20
0.0
 30
0.0
  0
POINT
  5
16B
  8
DEFPOINTS
 10
309.0
 20
168.5
 30
0.0
  0
POINT
  5
16C
  8
DEFPOINTS
 10
309.0
 20
200.5
 30
0.0
  0
POINT
  5
16D
  8
DEFPOINTS
 10
279.0
 20
200.5
 30
0.0
  0
ENDBLK
  5
16E
  8
0
  0
BLOCK
  8
0
  2
*U31
 70
     1
 10
0.0
 20
0.0
 30
0.0
  3
*U31
  1

  0
TEXT
  5
170
  8
标注
 10
188.0
 20
175.5
 30
0.0
 40
18.0
  1
32
  0
ENDBLK
  5
171
  8
0
  0
BLOCK
  8
0
  2
*D32
 70
     1
 10
0.0
 20
0.0
 30
0.0
  3
*D32
  1

  0
LINE
  5
174
  8
标注
 10
303.0
 20
200.5
 30
0.0
 11
259.0
 21
200.5
 31
0.0
  0
LINE
  5
175
  8
标注
 10
303.0
 20
264.5
 30
0.0
 11
259.0
 21
264.5
 31
0.0
  0
LINE
  5
176
  8
标注
 10
279.0
 20
200.5
 30
0.0
 11
279.0
 21
264.5
 31
0.0
  0
SOLID
  5
177
  8
标注
 10
282.0
 20
203.5
 30
0.0
 11
276.0
 21
203.5
 31
0.0
 12
279.0
 22
200.5
 32
0.0
 13
279.0
 23
200.5
 33
0.0
  0
SOLID
  5
178
  8
标注
 10
282.0
 20
261.5
 30
0.0
 11
276.0
 21
261.5
 31
0.0
 12
279.0
 22
264.5
 32
0.0
 13
279.0
 23
264.5
 33
0.0
  0
INSERT
  5
17A
  8
0
  2
*U33
 10
0.0
 20
0.0
 30
0.0
  0
POINT
  5
17B
  8
DEFPOINTS
 10
309.0
 20
200.5
 30
0.0
  0
POINT
  5
17C
  8
DEFPOINTS
 10
309.0
 20
264.5
 30
0.0
  0
POINT
  5
17D
  8
DEFPOINTS
 10
279.0
 20
264.5
 30
0.0
  0
ENDBLK
  5
17E
  8
0
  0
BLOCK
  8
0
  2
*U33
 70
     1
 10
0.0
 20
0.0
 30
0.0
  3
*U33
  1

  0
TEXT
  5
180
  8
标注
 10
188.0
 20
223.5
 30
0.0
 40
18.0
  1
64
  0
ENDBLK
  5
181
  8
0
  0
BLOCK
  8
0
  2
*D34
 70
     1
 10
0.0
 20
0.0
 30
0.0
  3
*D34
  1

  0
LINE
  5
184
  8
标注
 10
303.0
 20
264.5
 30
0.0
 11
259.0
 21
264.5
 31
0.0
  0
LINE
  5
185
  8
标注
 10
303.0
 20
296.5
 30
0.0
 11
259.0
 21
296.5
 31
0.0
  0
LINE
  5
186
  8
标注
 10
279.0
 20
264.5
 30
0.0
 11
279.0
 21
296.5
 31
0.0
  0
SOLID
  5
187
  8
标注
 10
282.0
 20
267.5
 30
0.0
 11
276.0
 21
267.5
 31
0.0
 12
279.0
 22
264.5
 32
0.0
 13
279.0
 23
264.5
 33
0.0
  0
SOLID
  5
188
  8
标注
 10
282.0
 20
293.5
 30
0.0
 11
276.0
 21
293.5
 31
0.0
 12
279.0
 22
296.5
 32
0.0
 13
279.0
 23
296.5
 33
0.0
  0
INSERT
  5
18A
  8
0
  2
*U35
 10
0.0
 20
0.0
 30
0.0
  0
POINT
  5
18B
  8
DEFPOINTS
 10
309.0
 20
264.5
 30
0.0
  0
POINT
  5
18C
  8
DEFPOINTS
 10
309.0
 20
296.5
 30
0.0
  0
POINT
  5
18D
  8
DEFPOINTS
 10
279.0
 20
296.5
 30
0.0
  0
ENDBLK
  5
18E
  8
0
  0
BLOCK
  8
0
  2
*U35
 70
     1
 10
0.0
 20
0.0
 30
0.0
  3
*U35
  1

  0
TEXT
  5
190
  8
标注
 10
188.0
 20
271.5
 30
0.0
 40
18.0
  1
32
  0
ENDBLK
  5
191
  8
0
  0
BLOCK
  8
0
  2
*D36
 70
     1
 10
0.0
 20
0.0
 30
0.0
  3
*D36
  1

  0
LINE
  5
194
  8
标注
 10
303.0
 20
296.5
 30
0.0
 11
259.0
 21
296.5
 31
0.0
  0
LINE
  5
195
  8
标注
 10
303.0
 20
465.0
 30
0.0
 11
259.0
 21
465.0
 31
0.0
  0
LINE
  5
196
  8
标注
 10
279.0
 20
296.5
 30
0.0
 11
279.0
 21
465.0
 31
0.0
  0
SOLID
  5
197
  8
标注
 10
282.0
 20
299.5
 30
0.0
 11
276.0
 21
299.5
 31
0.0
 12
279.0
 22
296.5
 32
0.0
 13
279.0
 23
296.5
 33
0.0
  0
SOLID
  5
198
  8
标注
 10
282.0
 20
462.0
 30
0.0
 11
276.0
 21
462.0
 31
0.0
 12
279.0
 22
465.0
 32
0.0
 13
279.0
 23
465.0
 33
0.0
  0
INSERT
  5
19A
  8
0
  2
*U37
 10
0.0
 20
0.0
 30
0.0
  0
POINT
  5
19B
  8
DEFPOINTS
 10
309.0
 20
296.5
 30
0.0
  0
POINT
  5
19C
  8
DEFPOINTS
 10
309.0
 20
465.0
 30
0.0
  0
POINT
  5
19D
  8
DEFPOINTS
 10
279.0
 20
465.0
 30
0.0
  0
ENDBLK
  5
19E
  8
0
  0
BLOCK
  8
0
  2
*U37
 70
     1
 10
0.0
 20
0.0
 30
0.0
  3
*U37
  1

  0
TEXT
  5
1A0
  8
标注
 10
188.0
 20
371.75
 30
0.0
 40
18.0
  1
168.5
  0
ENDBLK
  5
1A1
  8
0
  0
ENDSEC
  0
SECTION
  2
ENTITIES
  0
POLYLINE
  5
1A3
  8
实线
 66
     1
 10
0.0
 20
0.0
 30
0.0
 70
     1
  0
VERTEX
  5
2A8
  8
实线
 10
-1864.0
 20
0.0
 30
0.0
  0
VERTEX
  5
2A9
  8
实线
 10
-1864.0
 20
465.0
 30
0.0
  0
VERTEX
  5
2AA
  8
实线
 10
0.0
 20
465.0
 30
0.0
  0
VERTEX
  5
2AB
  8
实线
 10
0.0
 20
0.0
 30
0.0
  0
SEQEND
  5
2AC
  8
实线
  0
POLYLINE
  5
1A9
  8
实线
 66
     1
 10
0.0
 20
0.0
 30
0.0
 70
     1
  0
VERTEX
  5
2AD
  8
实线
 10
300.0
 20
0.0
 30
0.0
  0
VERTEX
  5
2AE
  8
实线
 10
300.0
 20
465.0
 30
0.0
  0
VERTEX
  5
2AF
  8
实线
 10
318.0
 20
465.0
 30
0.0
  0
VERTEX
  5
2B0
  8
实线
 10
318.0
 20
0.0
 30
0.0
  0
SEQEND
  5
2B1
  8
实线
  0
POLYLINE
  5
1AF
  8
实线
 66
     1
 10
0.0
 20
0.0
 30
0.0
 70
     1
  0
VERTEX
  5
2B2
  8
实线
 10
-1864.0
 20
-318.0
 30
0.0
  0
VERTEX
  5
2B3
  8
实线
 10
-1864.0
 20
-300.0
 30
0.0
  0
VERTEX
  5
2B4
  8
实线
 10
0.0
 20
-300.0
 30
0.0
  0
VERTEX
  5
2B5
  8
实线
 10
0.0
 20
-318.0
 30
0.0
  0
SEQEND
  5
2B6
  8
实线
  0
DIMENSION
  5
1B5
  8
标注
  2
*D0
 10
0.0
 20
485.0
 30
0.0
 11
-932.0
 21
495.0
 31
0.0
 13
-1864.0
 23
465.0
 33
0.0
 14
0.0
 24
465.0
 34
0.0
  0
DIMENSION
  5
1B6
  8
标注
  2
*D2
 10
20.0
 20
0.0
 30
0.0
 11
30.0
 21
232.5
 31
0.0
 13
0.0
 23
465.0
 33
0.0
 14
0.0
 24
0.0
 34
0.0
  0
DIMENSION
  5
1B7
  8
标注
  2
*D4
 10
318.0
 20
485.0
 30
0.0
 11
309.0
 21
495.0
 31
0.0
 13
300.0
 23
465.0
 33
0.0
 14
318.0
 24
465.0
 34
0.0
  0
DIMENSION
  5
1B8
  8
标注
  2
*D6
 10
-24.0
 20
244.5
 30
0.0
 11
-12.0
 21
102.25
 31
0.0
 13
0.0
 23
0.0
 33
0.0
 14
-24.0
 24
264.5
 34
0.0
  0
DIMENSION
  5
1B9
  8
标注
  2
*D8
 10
-461.5
 20
276.5
 30
0.0
 11
-242.75
 21
250.5
 31
0.0
 13
-24.0
 23
264.5
 33
0.0
 14
-461.5
 24
296.5
 34
0.0
  0
DIMENSION
  5
1BA
  8
标注
  2
*D10
 10
-932.0
 20
276.5
 30
0.0
 11
-696.75
 21
266.5
 31
0.0
 13
-461.5
 23
296.5
 33
0.0
 14
-932.0
 24
296.5
 34
0.0
  0
DIMENSION
  5
1BB
  8
标注
  2
*D12
 10
-1402.5
 20
276.5
 30
0.0
 11
-1167.25
 21
266.5
 31
0.0
 13
-932.0
 23
296.5
 33
0.0
 14
-1402.5
 24
296.5
 34
0.0
  0
DIMENSION
  5
1BC
  8
标注
  2
*D14
 10
-1840.0
 20
244.5
 30
0.0
 11
-1621.25
 21
250.5
 31
0.0
 13
-1402.5
 23
296.5
 33
0.0
 14
-1840.0
 24
264.5
 34
0.0
  0
DIMENSION
  5
1BD
  8
标注
  2
*D16
 10
-1864.0
 20
-20.0
 30
0.0
 11
-1852.0
 21
102.25
 31
0.0
 13
-1840.0
 23
264.5
 33
0.0
 14
-1864.0
 24
0.0
 34
0.0
  0
DIMENSION
  5
1BE
  8
标注
  2
*D18
 10
-481.5
 20
168.5
 30
0.0
 11
-1192.75
 21
84.25
 31
0.0
 13
-1864.0
 23
0.0
 33
0.0
 14
-461.5
 24
168.5
 34
0.0
  0
DIMENSION
  5
1BF
  8
标注
  2
*D20
 10
-44.0
 20
200.5
 30
0.0
 11
-272.75
 21
184.5
 31
0.0
 13
-461.5
 23
168.5
 33
0.0
 14
-24.0
 24
200.5
 34
0.0
  0
DIMENSION
  5
1C0
  8
标注
  2
*D22
 10
-44.0
 20
264.5
 30
0.0
 11
-54.0
 21
232.5
 31
0.0
 13
-24.0
 23
200.5
 33
0.0
 14
-24.0
 24
264.5
 34
0.0
  0
DIMENSION
  5
1C1
  8
标注
  2
*D24
 10
-481.5
 20
296.5
 30
0.0
 11
-272.75
 21
280.5
 31
0.0
 13
-24.0
 23
264.5
 33
0.0
 14
-461.5
 24
296.5
 34
0.0
  0
DIMENSION
  5
1C2
  8
标注
  2
*D26
 10
-1884.0
 20
465.0
 30
0.0
 11
-1192.75
 21
380.75
 31
0.0
 13
-461.5
 23
296.5
 33
0.0
 14
-1864.0
 24
465.0
 34
0.0
  0
DIMENSION
  5
1C3
  8
标注
  2
*D28
 10
289.0
 20
168.5
 30
0.0
 11
279.0
 21
84.25
 31
0.0
 13
309.0
 23
0.0
 33
0.0
 14
309.0
 24
168.5
 34
0.0
  0
DIMENSION
  5
1C4
  8
标注
  2
*D30
 10
289.0
 20
200.5
 30
0.0
 11
279.0
 21
184.5
 31
0.0
 13
309.0
 23
168.5
 33
0.0
 14
309.0
 24
200.5
 34
0.0
  0
DIMENSION
  5
1C5
  8
标注
  2
*D32
 10
289.0
 20
264.5
 30
0.0
 11
279.0
 21
232.5
 31
0.0
 13
309.0
 23
200.5
 33
0.0
 14
309.0
 24
264.5
 34
0.0
  0
DIMENSION
  5
1C6
  8
标注
  2
*D34
 10
289.0
 20
296.5
 30
0.0
 11
279.0
 21
280.5
 31
0.0
 13
309.0
 23
264.5
 33
0.0
 14
309.0
 24
296.5
 34
0.0
  0
DIMENSION
  5
1C7
  8
标注
  2
*D36
 10
289.0
 20
465.0
 30
0.0
 11
279.0
 21
380.75
 31
0.0
 13
309.0
 23
296.5
 33
0.0
 14
309.0
 24
465.0
 34
0.0
  0
CIRCLE
  5
1C8
  8
实线
 10
-932.0
 20
200.5
 30
0.0
 40
5.0
  0
LINE
  5
1CA
  8
中心线
 10
-942.0
 20
200.5
 30
0.0
 11
-922.0
 21
200.5
 31
0.0
  0
LINE
  5
1CB
  8
中心线
 10
-932.0
 20
190.5
 30
0.0
 11
-932.0
 21
210.5
 31
0.0
  0
TEXT
  5
1CC
  8
标注
 10
-927.0
 20
205.5
 30
0.0
 40
12.0
  1
2
  0
CIRCLE
  5
1CD
  8
实线
 10
-932.0
 20
264.5
 30
0.0
 40
5.0
  0
LINE
  5
1CE
  8
中心线
 10
-942.0
 20
264.5
 30
0.0
 11
-922.0
 21
264.5
 31
0.0
  0
LINE
  5
1CF
  8
中心线
 10
-932.0
 20
254.5
 30
0.0
 11
-932.0
 21
274.5
 31
0.0
  0
TEXT
  5
1D0
  8
标注
 10
-927.0
 20
269.5
 30
0.0
 40
12.0
  1
2
  0
CIRCLE
  5
1D1
  8
实线
 10
-932.0
 20
168.5
 30
0.0
 40
4.0
  0
LINE
  5
1D2
  8
中心线
 10
-940.0
 20
168.5
 30
0.0
 11
-924.0
 21
168.5
 31
0.0
  0
LINE
  5
1D3
  8
中心线
 10
-932.0
 20
160.5
 30
0.0
 11
-932.0
 21
176.5
 31
0.0
  0
TEXT
  5
1D4
  8
标注
 10
-928.0
 20
172.5
 30
0.0
 40
12.0
  1
0
  0
CIRCLE
  5
1D5
  8
实线
 10
-932.0
 20
296.5
 30
0.0
 40
4.0
  0
LINE
  5
1D6
  8
中心线
 10
-940.0
 20
296.5
 30
0.0
 11
-924.0
 21
296.5
 31
0.0
  0
LINE
  5
1D7
  8
中心线
 10
-932.0
 20
288.5
 30
0.0
 11
-932.0
 21
304.5
 31
0.0
  0
TEXT
  5
1D8
  8
标注
 10
-928.0
 20
300.5
 30
0.0
 40
12.0
  1
0
  0
CIRCLE
  5
1D9
  8
实线
 10
-461.5
 20
200.5
 30
0.0
 40
5.0
  0
LINE
  5
1DA
  8
中心线
 10
-471.49999999999989
 20
200.5
 30
0.0
 11
-451.49999999999989
 21
200.5
 31
0.0
  0
LINE
  5
1DB
  8
中心线
 10
-461.5
 20
190.5
 30
0.0
 11
-461.5
 21
210.5
 31
0.0
  0
TEXT
  5
1DC
  8
标注
 10
-456.5
 20
205.5
 30
0.0
 40
12.0
  1
2
  0
CIRCLE
  5
1DD
  8
实线
 10
-461.5
 20
264.5
 30
0.0
 40
5.0
  0
LINE
  5
1DE
  8
中心线
 10
-471.49999999999989
 20
264.5
 30
0.0
 11
-451.49999999999989
 21
264.5
 31
0.0
  0
LINE
  5
1DF
  8
中心线
 10
-461.5
 20
254.5
 30
0.0
 11
-461.5
 21
274.5
 31
0.0
  0
TEXT
  5
1E0
  8
标注
 10
-456.5
 20
269.5
 30
0.0
 40
12.0
  1
2
  0
CIRCLE
  5
1E1
  8
实线
 10
-461.5
 20
168.5
 30
0.0
 40
4.0
  0
LINE
  5
1E2
  8
中心线
 10
-469.5
 20
168.5
 30
0.0
 11
-453.5
 21
168.5
 31
0.0
  0
LINE
  5
1E3
  8
中心线
 10
-461.5
 20
160.5
 30
0.0
 11
-461.5
 21
176.5
 31
0.0
  0
TEXT
  5
1E4
  8
标注
 10
-457.5
 20
172.5
 30
0.0
 40
12.0
  1
0
  0
CIRCLE
  5
1E5
  8
实线
 10
-461.5
 20
296.5
 30
0.0
 40
4.0
  0
LINE
  5
1E6
  8
中心线
 10
-469.5
 20
296.5
 30
0.0
 11
-453.5
 21
296.5
 31
0.0
  0
LINE
  5
1E7
  8
中心线
 10
-461.5
 20
288.5
 30
0.0
 11
-461.5
 21
304.5
 31
0.0
  0
TEXT
  5
1E8
  8
标注
 10
-457.5
 20
300.5
 30
0.0
 40
12.0
  1
0
  0
CIRCLE
  5
1E9
  8
实线
 10
309.0
 20
200.5
 30
0.0
 40
5.0
  0
LINE
  5
1EA
  8
中心线
 10
299.0
 20
200.5
 30
0.0
 11
319.0
 21
200.5
 31
0.0
  0
LINE
  5
1EB
  8
中心线
 10
309.0
 20
190.5
 30
0.0
 11
309.0
 21
210.5
 31
0.0
  0
TEXT
  5
1EC
  8
标注
 10
314.0
 20
205.5
 30
0.0
 40
12.0
  1
3
  0
CIRCLE
  5
1ED
  8
实线
 10
309.0
 20
264.5
 30
0.0
 40
5.0
  0
LINE
  5
1EE
  8
中心线
 10
299.0
 20
264.5
 30
0.0
 11
319.0
 21
264.5
 31
0.0
  0
LINE
  5
1EF
  8
中心线
 10
309.0
 20
254.5
 30
0.0
 11
309.0
 21
274.5
 31
0.0
  0
TEXT
  5
1F0
  8
标注
 10
314.0
 20
269.5
 30
0.0
 40
12.0
  1
3
  0
CIRCLE
  5
1F1
  8
实线
 10
309.0
 20
168.5
 30
0.0
 40
4.0
  0
LINE
  5
1F2
  8
中心线
 10
301.0
 20
168.5
 30
0.0
 11
317.0
 21
168.5
 31
0.0
  0
LINE
  5
1F3
  8
中心线
 10
309.0
 20
160.5
 30
0.0
 11
309.0
 21
176.5
 31
0.0
  0
TEXT
  5
1F4
  8
标注
 10
313.0
 20
172.5
 30
0.0
 40
12.0
  1
1
  0
CIRCLE
  5
1F5
  8
实线
 10
309.0
 20
296.5
 30
0.0
 40
4.0
  0
LINE
  5
1F6
  8
中心线
 10
301.0
 20
296.5
 30
0.0
 11
317.0
 21
296.5
 31
0.0
  0
LINE
  5
1F7
  8
中心线
 10
309.0
 20
288.5
 30
0.0
 11
309.0
 21
304.5
 31
0.0
  0
TEXT
  5
1F8
  8
标注
 10
313.0
 20
300.5
 30
0.0
 40
12.0
  1
1
  0
CIRCLE
  5
1FA
  8
虚线
 10
-932.0
 20
200.5
 30
0.0
 40
5.0
  0
LINE
  5
1FB
  8
中心线
 10
-942.0
 20
200.5
 30
0.0
 11
-922.0
 21
200.5
 31
0.0
  0
LINE
  5
1FC
  8
中心线
 10
-932.0
 20
190.5
 30
0.0
 11
-932.0
 21
210.5
 31
0.0
  0
TEXT
  5
1FD
  8
标注
 10
-945.0
 20
183.5
 30
0.0
 40
12.0
  1
2
 72
     2
 11
-937.0
 21
195.5
 31
0.0
 73
     3
  0
CIRCLE
  5
1FE
  8
虚线
 10
-932.0
 20
264.5
 30
0.0
 40
5.0
  0
LINE
  5
1FF
  8
中心线
 10
-942.0
 20
264.5
 30
0.0
 11
-922.0
 21
264.5
 31
0.0
  0
LINE
  5
200
  8
中心线
 10
-932.0
 20
254.5
 30
0.0
 11
-932.0
 21
274.5
 31
0.0
  0
TEXT
  5
201
  8
标注
 10
-945.0
 20
247.5
 30
0.0
 40
12.0
  1
2
 72
     2
 11
-937.0
 21
259.5
 31
0.0
 73
     3
  0
CIRCLE
  5
202
  8
虚线
 10
-932.0
 20
168.5
 30
0.0
 40
4.0
  0
LINE
  5
203
  8
中心线
 10
-940.0
 20
168.5
 30
0.0
 11
-924.0
 21
168.5
 31
0.0
  0
LINE
  5
204
  8
中心线
 10
-932.0
 20
160.5
 30
0.0
 11
-932.0
 21
176.5
 31
0.0
  0
TEXT
  5
205
  8
标注
 10
-942.0
 20
152.5
 30
0.0
 40
12.0
  1
0
 72
     2
 11
-936.0
 21
164.5
 31
0.0
 73
     3
  0
CIRCLE
  5
206
  8
虚线
 10
-932.0
 20
296.5
 30
0.0
 40
4.0
  0
LINE
  5
207
  8
中心线
 10
-940.0
 20
296.5
 30
0.0
 11
-924.0
 21
296.5
 31
0.0
  0
LINE
  5
208
  8
中心线
 10
-932.0
 20
288.5
 30
0.0
 11
-932.0
 21
304.5
 31
0.0
  0
TEXT
  5
209
  8
标注
 10
-942.0
 20
280.5
 30
0.0
 40
12.0
  1
0
 72
     2
 11
-936.0
 21
292.5
 31
0.0
 73
     3
  0
CIRCLE
  5
20A
  8
虚线
 10
-1402.5
 20
200.5
 30
0.0
 40
5.0
  0
LINE
  5
20B
  8
中心线
 10
-1412.5
 20
200.5
 30
0.0
 11
-1392.5
 21
200.5
 31
0.0
  0
LINE
  5
20C
  8
中心线
 10
-1402.5
 20
190.5
 30
0.0
 11
-1402.5
 21
210.5
 31
0.0
  0
TEXT
  5
20D
  8
标注
 10
-1415.5
 20
183.5
 30
0.0
 40
12.0
  1
2
 72
     2
 11
-1407.5
 21
195.5
 31
0.0
 73
     3
  0
CIRCLE
  5
20E
  8
虚线
 10
-1402.5
 20
264.5
 30
0.0
 40
5.0
  0
LINE
  5
20F
  8
中心线
 10
-1412.5
 20
264.5
 30
0.0
 11
-1392.5
 21
264.5
 31
0.0
  0
LINE
  5
210
  8
中心线
 10
-1402.5
 20
254.5
 30
0.0
 11
-1402.5
 21
274.5
 31
0.0
  0
TEXT
  5
211
  8
标注
 10
-1415.5
 20
247.5
 30
0.0
 40
12.0
  1
2
 72
     2
 11
-1407.5
 21
259.5
 31
0.0
 73
     3
  0
CIRCLE
  5
212
  8
虚线
 10
-1402.5
 20
168.5
 30
0.0
 40
4.0
  0
LINE
  5
213
  8
中心线
 10
-1410.5
 20
168.5
 30
0.0
 11
-1394.5
 21
168.5
 31
0.0
  0
LINE
  5
214
  8
中心线
 10
-1402.5
 20
160.5
 30
0.0
 11
-1402.5
 21
176.5
 31
0.0
  0
TEXT
  5
215
  8
标注
 10
-1412.5
 20
152.5
 30
0.0
 40
12.0
  1
0
 72
     2
 11
-1406.5
 21
164.5
 31
0.0
 73
     3
  0
CIRCLE
  5
216
  8
虚线
 10
-1402.5
 20
296.5
 30
0.0
 40
4.0
  0
LINE
  5
217
  8
中心线
 10
-1410.5
 20
296.5
 30
0.0
 11
-1394.5
 21
296.5
 31
0.0
  0
LINE
  5
218
  8
中心线
 10
-1402.5
 20
288.5
 30
0.0
 11
-1402.5
 21
304.5
 31
0.0
  0
TEXT
  5
219
  8
标注
 10
-1412.5
 20
280.5
 30
0.0
 40
12.0
  1
0
 72
     2
 11
-1406.5
 21
292.5
 31
0.0
 73
     3
  0
CIRCLE
  5
21A
  8
虚线
 10
-1840.0
 20
200.5
 30
0.0
 40
10.0
  0
LINE
  5
21B
  8
中心线
 10
-1860.0
 20
200.5
 30
0.0
 11
-1820.0
 21
200.5
 31
0.0
  0
LINE
  5
21C
  8
中心线
 10
-1840.0
 20
180.5
 30
0.0
 11
-1840.0
 21
220.5
 31
0.0
  0
TEXT
  5
21D
  8
标注
 10
-1858.0
 20
178.5
 30
0.0
 40
12.0
  1
4
 72
     2
 11
-1850.0
 21
190.5
 31
0.0
 73
     3
  0
CIRCLE
  5
21E
  8
虚线
 10
-1840.0
 20
264.5
 30
0.0
 40
10.0
  0
LINE
  5
21F
  8
中心线
 10
-1860.0
 20
264.5
 30
0.0
 11
-1820.0
 21
264.5
 31
0.0
  0
LINE
  5
220
  8
中心线
 10
-1840.0
 20
244.5
 30
0.0
 11
-1840.0
 21
284.5
 31
0.0
  0
TEXT
  5
221
  8
标注
 10
-1858.0
 20
242.5
 30
0.0
 40
12.0
  1
4
 72
     2
 11
-1850.0
 21
254.5
 31
0.0
 73
     3
  0
CIRCLE
  5
222
  8
虚线
 10
-24.0
 20
200.5
 30
0.0
 40
10.0
  0
LINE
  5
223
  8
中心线
 10
-44.0
 20
200.5
 30
0.0
 11
-4.0
 21
200.5
 31
0.0
  0
LINE
  5
224
  8
中心线
 10
-24.0
 20
180.5
 30
0.0
 11
-24.0
 21
220.5
 31
0.0
  0
TEXT
  5
225
  8
标注
 10
-42.0
 20
178.5
 30
0.0
 40
12.0
  1
4
 72
     2
 11
-34.0
 21
190.5
 31
0.0
 73
     3
  0
CIRCLE
  5
226
  8
虚线
 10
-24.0
 20
264.5
 30
0.0
 40
10.0
  0
LINE
  5
227
  8
中心线
 10
-44.0
 20
264.5
 30
0.0
 11
-4.0
 21
264.5
 31
0.0
  0
LINE
  5
228
  8
中心线
 10
-24.0
 20
244.5
 30
0.0
 11
-24.0
 21
284.5
 31
0.0
  0
TEXT
  5
229
  8
标注
 10
-42.0
 20
242.5
 30
0.0
 40
12.0
  1
4
 72
     2
 11
-34.0
 21
254.5
 31
0.0
 73
     3
  0
CIRCLE
  5
22A
  8
虚线
 10
309.0
 20
200.5
 30
0.0
 40
5.0
  0
LINE
  5
22B
  8
中心线
 10
299.0
 20
200.5
 30
0.0
 11
319.0
 21
200.5
 31
0.0
  0
LINE
  5
22C
  8
中心线
 10
309.0
 20
190.5
 30
0.0
 11
309.0
 21
210.5
 31
0.0
  0
TEXT
  5
22D
  8
标注
 10
296.0
 20
183.5
 30
0.0
 40
12.0
  1
3
 72
     2
 11
304.0
 21
195.5
 31
0.0
 73
     3
  0
CIRCLE
  5
22E
  8
虚线
 10
309.0
 20
264.5
 30
0.0
 40
5.0
  0
LINE
  5
22F
  8
中心线
 10
299.0
 20
264.5
 30
0.0
 11
319.0
 21
264.5
 31
0.0
  0
LINE
  5
230
  8
中心线
 10
309.0
 20
254.5
 30
0.0
 11
309.0
 21
274.5
 31
0.0
  0
TEXT
  5
231
  8
标注
 10
296.0
 20
247.5
 30
0.0
 40
12.0
  1
3
 72
     2
 11
304.0
 21
259.5
 31
0.0
 73
     3
  0
CIRCLE
  5
232
  8
虚线
 10
309.0
 20
168.5
 30
0.0
 40
4.0
  0
LINE
  5
233
  8
中心线
 10
301.0
 20
168.5
 30
0.0
 11
317.0
 21
168.5
 31
0.0
  0
LINE
  5
234
  8
中心线
 10
309.0
 20
160.5
 30
0.0
 11
309.0
 21
176.5
 31
0.0
  0
TEXT
  5
235
  8
标注
 10
301.0
 20
152.5
 30
0.0
 40
12.0
  1
1
 72
     2
 11
305.0
 21
164.5
 31
0.0
 73
     3
  0
CIRCLE
  5
236
  8
虚线
 10
309.0
 20
296.5
 30
0.0
 40
4.0
  0
LINE
  5
237
  8
中心线
 10
301.0
 20
296.5
 30
0.0
 11
317.0
 21
296.5
 31
0.0
  0
LINE
  5
238
  8
中心线
 10
309.0
 20
288.5
 30
0.0
 11
309.0
 21
304.5
 31
0.0
  0
TEXT
  5
239
  8
标注
 10
301.0
 20
280.5
 30
0.0
 40
12.0
  1
1
 72
     2
 11
305.0
 21
292.5
 31
0.0
 73
     3
  0
TEXT
  5
23B
  8
文字
 10
100.0
 20
-124.0
 30
0.0
 40
18.0
  1
Hole
  0
TEXT
  5
23C
  8
文字
 10
180.0
 20
-124.0
 30
0.0
 40
18.0
  1
DIA
  0
TEXT
  5
23D
  8
文字
 10
260.0
 20
-124.0
 30
0.0
 40
18.0
  1
DEP
  0
TEXT
  5
23E
  8
文字
 10
100.0
 20
-148.0
 30
0.0
 40
18.0
  1
0
  0
TEXT
  5
23F
  8
文字
 10
180.0
 20
-148.0
 30
0.0
 40
18.0
  1
8
  0
TEXT
  5
240
  8
文字
 10
260.0
 20
-148.0
 30
0.0
 40
18.0
  1
18
  0
TEXT
  5
241
  8
文字
 10
100.0
 20
-172.0
 30
0.0
 40
18.0
  1
1
  0
TEXT
  5
242
  8
文字
 10
180.0
 20
-172.0
 30
0.0
 40
18.0
  1
8
  0
TEXT
  5
243
  8
文字
 10
260.0
 20
-172.0
 30
0.0
 40
18.0
  1
36
  0
TEXT
  5
244
  8
文字
 10
100.0
 20
-196.0
 30
0.0
 40
18.0
  1
2
  0
TEXT
  5
245
  8
文字
 10
180.0
 20
-196.0
 30
0.0
 40
18.0
  1
10
  0
TEXT
  5
246
  8
文字
 10
260.0
 20
-196.0
 30
0.0
 40
18.0
  1
12
  0
TEXT
  5
247
  8
文字
 10
100.0
 20
-220.0
 30
0.0
 40
18.0
  1
3
  0
TEXT
  5
248
  8
文字
 10
180.0
 20
-220.0
 30
0.0
 40
18.0
  1
10
  0
TEXT
  5
249
  8
文字
 10
260.0
 20
-220.0
 30
0.0
 40
18.0
  1
24
  0
TEXT
  5
24A
  8
文字
 10
100.0
 20
-244.0
 30
0.0
 40
18.0
  1
4
  0
TEXT
  5
24B
  8
文字
 10
180.0
 20
-244.0
 30
0.0
 40
18.0
  1
20
  0
TEXT
  5
24C
  8
文字
 10
260.0
 20
-244.0
 30
0.0
 40
18.0
  1
16
  0
ENDSEC
  0
EOF
