  0
SECTION
  2
HEADER
  9
$ACADVER
  1
AC1009
  9
$INSBASE
 10
0.0
 20
0.0
 30
0.0
  9
$EXTMIN
 10
-2000.0
 20
-118.0
 30
0.0
  9
$EXTMAX
 10
256.0
 20
656.33641132448884
 30
0.0
  9
$LIMMIN
 10
0.0
 20
0.0
  9
$LIMMAX
 10
12.0
 20
9.0
  9
$ORTHOMODE
 70
     0
  9
$REGENMODE
 70
     1
  9
$FILLMODE
 70
     1
  9
$QTEXTMODE
 70
     0
  9
$MIRRTEXT
 70
     0
  9
$DRAGMODE
 70
     2
  9
$LTSCALE
 40
1.0
  9
$OSMODE
 70
    37
  9
$ATTMODE
 70
     1
  9
$TEXTSIZE
 40
0.2
  9
$TRACEWID
 40
0.05
  9
$TEXTSTYLE
  7
STANDARD
  9
$CLAYER
  8
0
  9
$CELTYPE
  6
BYLAYER
  9
$CECOLOR
 62
   256
  9
$DIMSCALE
 40
1.0
  9
$DIMASZ
 40
18.0
  9
$DIMEXO
 40
6.0
  9
$DIMDLI
 40
12.0
  9
$DIMRND
 40
0.0
  9
$DIMDLE
 40
0.0
  9
$DIMEXE
 40
18.0
  9
$DIMTP
 40
0.0
  9
$DIMTM
 40
0.0
  9
$DIMTXT
 40
18.0
  9
$DIMCEN
 40
9.0
  9
$DIMTSZ
 40
0.0
  9
$DIMTOL
 70
     0
  9
$DIMLIM
 70
     0
  9
$DIMTIH
 70
     0
  9
$DIMTOH
 70
     1
  9
$DIMSE1
 70
     0
  9
$DIMSE2
 70
     0
  9
$DIMTAD
 70
     0
  9
$DIMZIN
 70
     0
  9
$DIMBLK
  1

  9
$DIMASO
 70
     1
  9
$DIMSHO
 70
     1
  9
$DIMPOST
  1

  9
$DIMAPOST
  1

  9
$DIMALT
 70
     0
  9
$DIMALTD
 70
     2
  9
$DIMALTF
 40
25.399999999999999
  9
$DIMLFAC
 40
1.0
  9
$DIMTOFL
 70
     0
  9
$DIMTVP
 40
0.0
  9
$DIMTIX
 70
     0
  9
$DIMSOXD
 70
     0
  9
$DIMSAH
 70
     0
  9
$DIMBLK1
  1

  9
$DIMBLK2
  1

  9
$DIMSTYLE
  2
STANDARD
  9
$DIMCLRD
 70
     0
  9
$DIMCLRE
 70
     0
  9
$DIMCLRT
 70
     0
  9
$DIMTFAC
 40
1.0
  9
$DIMGAP
 40
12.0
  9
$LUNITS
 70
     2
  9
$LUPREC
 70
     4
  9
$SKETCHINC
 40
0.1
  9
$FILLETRAD
 40
0.0
  9
$AUNITS
 70
     0
  9
$AUPREC
 70
     0
  9
$MENU
  1
.
  9
$ELEVATION
 40
0.0
  9
$PELEVATION
 40
0.0
  9
$THICKNESS
 40
0.0
  9
$LIMCHECK
 70
     0
  9
$BLIPMODE
 70
     0
  9
$CHAMFERA
 40
0.0
  9
$CHAMFERB
 40
0.0
  9
$SKPOLY
 70
     0
  9
$TDCREATE
 40
2455609.877569803
  9
$TDUPDATE
 40
2455609.881047986
  9
$TDINDWG
 40
0.0034787269
  9
$TDUSRTIMER
 40
0.0034787269
  9
$USRTIMER
 70
     1
  9
$ANGBASE
 50
0.0
  9
$ANGDIR
 70
     0
  9
$PDMODE
 70
     0
  9
$PDSIZE
 40
0.0
  9
$PLINEWID
 40
0.0
  9
$COORDS
 70
     1
  9
$SPLFRAME
 70
     0
  9
$SPLINETYPE
 70
     6
  9
$SPLINESEGS
 70
     8
  9
$ATTDIA
 70
     0
  9
$ATTREQ
 70
     1
  9
$HANDLING
 70
     1
  9
$HANDSEED
  5
14A
  9
$SURFTAB1
 70
     6
  9
$SURFTAB2
 70
     6
  9
$SURFTYPE
 70
     6
  9
$SURFU
 70
     6
  9
$SURFV
 70
     6
  9
$UCSNAME
  2

  9
$UCSORG
 10
0.0
 20
0.0
 30
0.0
  9
$UCSXDIR
 10
1.0
 20
0.0
 30
0.0
  9
$UCSYDIR
 10
0.0
 20
1.0
 30
0.0
  9
$PUCSNAME
  2

  9
$PUCSORG
 10
0.0
 20
0.0
 30
0.0
  9
$PUCSXDIR
 10
1.0
 20
0.0
 30
0.0
  9
$PUCSYDIR
 10
0.0
 20
1.0
 30
0.0
  9
$USERI1
 70
     0
  9
$USERI2
 70
     0
  9
$USERI3
 70
     0
  9
$USERI4
 70
     0
  9
$USERI5
 70
     0
  9
$USERR1
 40
0.0
  9
$USERR2
 40
0.0
  9
$USERR3
 40
0.0
  9
$USERR4
 40
0.0
  9
$USERR5
 40
0.0
  9
$WORLDVIEW
 70
     1
  9
$SHADEDGE
 70
     3
  9
$SHADEDIF
 70
    70
  9
$TILEMODE
 70
     1
  9
$MAXACTVP
 70
    64
  9
$PLIMCHECK
 70
     0
  9
$PEXTMIN
 10
1.0000000000000000E+020
 20
1.0000000000000000E+020
 30
1.0000000000000000E+020
  9
$PEXTMAX
 10
-1.0000000000000000E+020
 20
-1.0000000000000000E+020
 30
-1.0000000000000000E+020
  9
$PLIMMIN
 10
0.0
 20
0.0
  9
$PLIMMAX
 10
12.0
 20
9.0
  9
$UNITMODE
 70
     0
  9
$VISRETAIN
 70
     1
  9
$PLINEGEN
 70
     0
  9
$PSLTSCALE
 70
     1
  0
ENDSEC
  0
SECTION
  2
TABLES
  0
TABLE
  2
VPORT
 70
     1
  0
VPORT
  2
*ACTIVE
 70
     0
 10
0.0
 20
0.0
 11
1.0
 21
1.0
 12
-951.57249205341088
 22
277.3333229938026
 13
0.0
 23
0.0
 14
1.0
 24
1.0
 15
0.0
 25
0.0
 16
0.0
 26
0.0
 36
1.0
 17
0.0
 27
0.0
 37
0.0
 40
1123.8084251275841
 41
2.2910714285714282
 42
50.0
 43
0.0
 44
0.0
 50
0.0
 51
0.0
 71
     0
 72
  1000
 73
     1
 74
     3
 75
     0
 76
     0
 77
     0
 78
     0
  0
ENDTAB
  0
TABLE
  2
LTYPE
 70
     2
  0
LTYPE
  2
CONTINUOUS
 70
     0
  3
Solid line
 72
    65
 73
     0
 40
0.0
  0
ENDTAB
  0
TABLE
  2
LAYER
 70
     3
  0
LAYER
  2
0
 70
     0
 62
     7
  6
CONTINUOUS
  0
LAYER
  2
实线
 70
     0
 62
     7
  6
CONTINUOUS
  0
LAYER
  2
DEFPOINTS
 70
     0
 62
     7
  6
CONTINUOUS
  0
ENDTAB
  0
TABLE
  2
STYLE
 70
     2
  0
STYLE
  2
STANDARD
 70
     0
 40
0.0
 41
1.0
 50
0.0
 71
     0
 42
0.2
  3
txt
  4

  0
STYLE
  2
ANNOTATIVE
 70
     0
 40
0.0
 41
1.0
 50
0.0
 71
     0
 42
0.2
  3
txt
  4

  0
ENDTAB
  0
TABLE
  2
VIEW
 70
     0
  0
ENDTAB
  0
TABLE
  2
UCS
 70
     0
  0
ENDTAB
  0
TABLE
  2
APPID
 70
     6
  0
APPID
  2
ACAD
 70
     0
  0
APPID
  2
ACADANNOTATIVE
 70
     0
  0
APPID
  2
ACAD_DSTYLE_DIMJAG
 70
     0
  0
APPID
  2
ACAD_DSTYLE_DIMBREAK
 70
     0
  0
APPID
  2
ACAD_DSTYLE_DIMTALN
 70
     0
  0
APPID
  2
ACAD_MLEADERVER
 70
     0
  0
ENDTAB
  0
TABLE
  2
DIMSTYLE
 70
     3
  0
DIMSTYLE
  2
STANDARD
 70
     0
  3

  4

  5

  6

  7

 40
1.0
 41
18.0
 42
6.0
 43
12.0
 44
18.0
 45
0.0
 46
0.0
 47
0.0
 48
0.0
140
18.0
141
9.0
142
0.0
143
25.399999999999999
144
1.0
145
0.0
146
1.0
147
12.0
 71
     0
 72
     0
 73
     0
 74
     1
 75
     0
 76
     0
 77
     0
 78
     0
170
     0
171
     2
172
     0
173
     0
174
     0
175
     0
176
     0
177
     0
178
     0
  0
DIMSTYLE
  2
ANNOTATIVE
 70
     0
  3

  4

  5

  6

  7

 40
1.0
 41
0.18
 42
0.0625
 43
0.38
 44
0.18
 45
0.0
 46
0.0
 47
0.0
 48
0.0
140
0.18
141
0.09
142
0.0
143
25.399999999999999
144
1.0
145
0.0
146
1.0
147
0.09
 71
     0
 72
     0
 73
     1
 74
     1
 75
     0
 76
     0
 77
     0
 78
     0
170
     0
171
     2
172
     0
173
     0
174
     0
175
     0
176
     0
177
     0
178
     0
  0
ENDTAB
  0
ENDSEC
  0
SECTION
  2
BLOCKS
  0
BLOCK
  8
0
  2
$MODEL_SPACE
 70
     0
 10
0.0
 20
0.0
 30
0.0
  3
$MODEL_SPACE
  1

  0
ENDBLK
  5
6D
  8
0
  0
BLOCK
 67
     1
  8
0
  2
$PAPER_SPACE
 70
     0
 10
0.0
 20
0.0
 30
0.0
  3
$PAPER_SPACE
  1

  0
ENDBLK
  5
69
 67
     1
  8
0
  0
BLOCK
  8
0
  2
*D0
 70
     1
 10
0.0
 20
0.0
 30
0.0
  3
*D0
  1

  0
LINE
  5
B3
  8
0
 62
     0
 10
-2000.0
 20
606.0
 30
0.0
 11
-2000.0
 21
656.33641132448884
 31
0.0
  0
LINE
  5
B4
  8
0
 62
     0
 10
0.0000000000000004
 20
606.0
 30
0.0
 11
0.0000000000000034
 21
656.33641132448884
 31
0.0
  0
LINE
  5
B5
  8
0
 62
     0
 10
-1982.0
 20
638.33641132448884
 30
0.0
 11
-1073.5
 21
638.33641132448884
 31
0.0
  0
LINE
  5
B6
  8
0
 62
     0
 10
-18.0
 20
638.33641132448884
 30
0.0
 11
-926.5
 21
638.33641132448884
 31
0.0
  0
SOLID
  5
B7
  8
0
 62
     0
 10
-1982.0
 20
641.33641132448884
 30
0.0
 11
-1982.0
 21
635.33641132448884
 31
0.0
 12
-2000.0
 22
638.33641132448884
 32
0.0
 13
-2000.0
 23
638.33641132448884
 33
0.0
  0
SOLID
  5
B8
  8
0
 62
     0
 10
-18.0
 20
641.33641132448884
 30
0.0
 11
-18.0
 21
635.33641132448884
 31
0.0
 12
0.0000000000000023
 22
638.33641132448884
 32
0.0
 13
0.0000000000000023
 23
638.33641132448884
 33
0.0
  0
INSERT
  5
B9
  8
0
  2
*U4
 10
0.0
 20
0.0
 30
0.0
  0
POINT
  5
BA
  8
DEFPOINTS
 62
     0
 10
-2000.0
 20
600.0
 30
0.0
  0
POINT
  5
BB
  8
DEFPOINTS
 62
     0
 10
0.0
 20
600.0
 30
0.0
  0
POINT
  5
BC
  8
DEFPOINTS
 62
     0
 10
0.0000000000000023
 20
638.33641132448884
 30
0.0
  0
ENDBLK
  5
B2
  8
0
  0
BLOCK
  8
0
  2
*D1
 70
     1
 10
0.0
 20
0.0
 30
0.0
  3
*D1
  1

  0
LINE
  5
C1
  8
0
 62
     0
 10
6.0
 20
-0.0000000000000017
 30
0.0
 11
62.588018533982002
 21
-0.0000000000000177
 31
0.0
  0
LINE
  5
C2
  8
0
 62
     0
 10
6.0
 20
600.0
 30
0.0
 11
62.58801853398213
 21
600.0
 31
0.0
  0
LINE
  5
C3
  8
0
 62
     0
 10
44.588018533982002
 20
17.999999999999979
 30
0.0
 11
44.588018533982037
 21
234.0
 31
0.0
  0
LINE
  5
C4
  8
0
 62
     0
 10
44.588018533982122
 20
582.0
 30
0.0
 11
44.588018533982073
 21
366.0
 31
0.0
  0
SOLID
  5
C5
  8
0
 62
     0
 10
41.588018533982002
 20
17.999999999999979
 30
0.0
 11
47.588018533982002
 21
17.999999999999979
 31
0.0
 12
44.588018533981987
 22
-0.0000000000000126
 32
0.0
 13
44.588018533981987
 23
-0.0000000000000126
 33
0.0
  0
SOLID
  5
C6
  8
0
 62
     0
 10
41.588018533982122
 20
582.0
 30
0.0
 11
47.588018533982122
 21
582.0
 31
0.0
 12
44.588018533982122
 22
600.0
 32
0.0
 13
44.588018533982122
 23
600.0
 33
0.0
  0
INSERT
  5
C7
  8
0
  2
*U5
 10
0.0
 20
0.0
 30
0.0
  0
POINT
  5
C8
  8
DEFPOINTS
 62
     0
 10
0.0
 20
0.0
 30
0.0
  0
POINT
  5
C9
  8
DEFPOINTS
 62
     0
 10
0.0
 20
600.0
 30
0.0
  0
POINT
  5
CA
  8
DEFPOINTS
 62
     0
 10
44.588018533982122
 20
600.0
 30
0.0
  0
ENDBLK
  5
C0
  8
0
  0
BLOCK
  8
0
  2
*D3
 70
     1
 10
0.0
 20
0.0
 30
0.0
  3
*D3
  1

  0
LINE
  5
D5
  8
0
 62
     0
 10
100.0
 20
606.0
 30
0.0
 11
100.0
 21
651.61774790293236
 31
0.0
  0
LINE
  5
D6
  8
0
 62
     0
 10
118.0
 20
606.0
 30
0.0
 11
118.0
 21
651.61774790293236
 31
0.0
  0
LINE
  5
D7
  8
0
 62
     0
 10
82.0
 20
633.61774790293236
 30
0.0
 11
64.0
 21
633.61774790293236
 31
0.0
  0
LINE
  5
D8
  8
0
 62
     0
 10
136.0
 20
633.61774790293236
 30
0.0
 11
154.0
 21
633.61774790293236
 31
0.0
  0
SOLID
  5
D9
  8
0
 62
     0
 10
82.0
 20
636.61774790293248
 30
0.0
 11
82.0
 21
630.61774790293236
 31
0.0
 12
100.0
 22
633.61774790293236
 32
0.0
 13
100.0
 23
633.61774790293236
 33
0.0
  0
SOLID
  5
DA
  8
0
 62
     0
 10
136.0
 20
636.61774790293248
 30
0.0
 11
136.0
 21
630.61774790293236
 31
0.0
 12
118.0
 22
633.61774790293236
 32
0.0
 13
118.0
 23
633.61774790293236
 33
0.0
  0
INSERT
  5
DB
  8
0
  2
*U6
 10
0.0
 20
0.0
 30
0.0
  0
POINT
  5
DC
  8
DEFPOINTS
 62
     0
 10
100.0
 20
600.0
 30
0.0
  0
POINT
  5
DD
  8
DEFPOINTS
 62
     0
 10
118.0
 20
600.0
 30
0.0
  0
POINT
  5
DE
  8
DEFPOINTS
 62
     0
 10
118.0
 20
633.61774790293236
 30
0.0
  0
ENDBLK
  5
D4
  8
0
  0
BLOCK
  8
0
  2
*U4
 70
     1
 10
0.0
 20
0.0
 30
0.0
  3
*U4
  1

  0
TEXT
  5
13C
  8
0
 62
     0
 10
-1061.5
 20
629.33641132448884
 30
0.0
 40
18.0
  1
2000.0000
  0
ENDBLK
  5
13E
  8
0
  0
BLOCK
  8
0
  2
*U5
 70
     1
 10
0.0
 20
0.0
 30
0.0
  3
*U5
  1

  0
TEXT
  5
140
  8
0
 62
     0
 10
53.588018533982009
 20
246.0
 30
0.0
 40
18.0
  1
600.0000
 50
90.0
  0
ENDBLK
  5
142
  8
0
  0
BLOCK
  8
0
  2
*U6
 70
     1
 10
0.0
 20
0.0
 30
0.0
  3
*U6
  1

  0
TEXT
  5
147
  8
0
 62
     0
 10
166.0
 20
624.61774790293236
 30
0.0
 40
18.0
  1
18.0000
  0
ENDBLK
  5
149
  8
0
  0
ENDSEC
  0
SECTION
  2
ENTITIES
  0
POLYLINE
  5
70
  8
实线
 66
     1
 10
0.0
 20
0.0
 30
0.0
 70
     1
  0
VERTEX
  5
12C
  8
实线
 10
-2000.0
 20
0.0
 30
0.0
  0
VERTEX
  5
12D
  8
实线
 10
-2000.0
 20
600.0
 30
0.0
  0
VERTEX
  5
12E
  8
实线
 10
0.0
 20
600.0
 30
0.0
  0
VERTEX
  5
12F
  8
实线
 10
0.0
 20
0.0
 30
0.0
  0
SEQEND
  5
130
  8
实线
  0
POLYLINE
  5
76
  8
实线
 66
     1
 10
0.0
 20
0.0
 30
0.0
 70
     1
  0
VERTEX
  5
131
  8
实线
 10
100.0
 20
0.0
 30
0.0
  0
VERTEX
  5
132
  8
实线
 10
100.0
 20
600.0
 30
0.0
  0
VERTEX
  5
133
  8
实线
 10
118.0
 20
600.0
 30
0.0
  0
VERTEX
  5
134
  8
实线
 10
118.0
 20
0.0
 30
0.0
  0
SEQEND
  5
135
  8
实线
  0
POLYLINE
  5
7C
  8
实线
 66
     1
 10
0.0
 20
0.0
 30
0.0
 70
     1
  0
VERTEX
  5
136
  8
实线
 10
-2000.0
 20
-118.0
 30
0.0
  0
VERTEX
  5
137
  8
实线
 10
-2000.0
 20
-100.0
 30
0.0
  0
VERTEX
  5
138
  8
实线
 10
0.0
 20
-100.0
 30
0.0
  0
VERTEX
  5
139
  8
实线
 10
0.0
 20
-118.0
 30
0.0
  0
SEQEND
  5
13A
  8
实线
  0
DIMENSION
  5
AE
  8
0
 10
0.0000000000000023
 20
638.33641132448884
 30
0.0
 11
-1000.0
 21
638.33641132448884
 31
0.0
 70
     0
 13
-2000.0
 23
600.0
 33
0.0
 14
0.0
 24
600.0
 34
0.0
  0
DIMENSION
  5
BD
  8
0
 10
44.588018533982122
 20
600.0
 30
0.0
 11
44.588018533982023
 21
300.0
 31
0.0
 70
     0
 13
0.0
 23
0.0
 33
0.0
 14
0.0
 24
600.0
 34
0.0
 50
270.0
  0
DIMENSION
  5
D1
  8
0
 10
118.0
 20
633.61774790293236
 30
0.0
 11
211.0
 21
633.61774790293236
 31
0.0
 70
     0
 13
100.0
 23
600.0
 33
0.0
 14
118.0
 24
600.0
 34
0.0
  0
ENDSEC
  0
EOF
