  0
SECTION
  2
HEADER
  9
$ACADVER
  1
AC1009
  9
$INSBASE
 10
0.0
 20
0.0
 30
0.0
  9
$EXTMIN
 10
-2000.0
 20
-318.0
 30
0.0
  9
$EXTMAX
 10
464.0
 20
648.0
 30
0.0
  9
$LIMMIN
 10
0.0
 20
0.0
  9
$LIMMAX
 10
12.0
 20
9.0
  9
$ORTHOMODE
 70
     0
  9
$REGENMODE
 70
     1
  9
$FILLMODE
 70
     1
  9
$QTEXTMODE
 70
     0
  9
$MIRRTEXT
 70
     0
  9
$DRAGMODE
 70
     2
  9
$LTSCALE
 40
1.0
  9
$OSMODE
 70
    37
  9
$ATTMODE
 70
     1
  9
$TEXTSIZE
 40
0.2
  9
$TRACEWID
 40
0.05
  9
$TEXTSTYLE
  7
STANDARD
  9
$CLAYER
  8
0
  9
$CELTYPE
  6
CONTINUOUS
  9
$CECOLOR
 62
   256
  9
$DIMSCALE
 40
1.0
  9
$DIMASZ
 40
18.0
  9
$DIMEXO
 40
6.0
  9
$DIMDLI
 40
0.0
  9
$DIMRND
 40
0.0
  9
$DIMDLE
 40
0.0
  9
$DIMEXE
 40
10.0
  9
$DIMTP
 40
0.0
  9
$DIMTM
 40
0.0
  9
$DIMTXT
 40
18.0
  9
$DIMCEN
 40
0.09
  9
$DIMTSZ
 40
0.0
  9
$DIMTOL
 70
     0
  9
$DIMLIM
 70
     0
  9
$DIMTIH
 70
     1
  9
$DIMTOH
 70
     1
  9
$DIMSE1
 70
     0
  9
$DIMSE2
 70
     0
  9
$DIMTAD
 70
     2
  9
$DIMZIN
 70
     0
  9
$DIMBLK
  1

  9
$DIMASO
 70
     1
  9
$DIMSHO
 70
     1
  9
$DIMPOST
  1

  9
$DIMAPOST
  1

  9
$DIMALT
 70
     0
  9
$DIMALTD
 70
     2
  9
$DIMALTF
 40
25.399999999999999
  9
$DIMLFAC
 40
1.0
  9
$DIMTOFL
 70
     0
  9
$DIMTVP
 40
0.0
  9
$DIMTIX
 70
     0
  9
$DIMSOXD
 70
     0
  9
$DIMSAH
 70
     0
  9
$DIMBLK1
  1

  9
$DIMBLK2
  1

  9
$DIMSTYLE
  2
STANDARD
  9
$DIMCLRD
 70
     0
  9
$DIMCLRE
 70
     0
  9
$DIMCLRT
 70
     0
  9
$DIMTFAC
 40
1.0
  9
$DIMGAP
 40
10.0
  9
$LUNITS
 70
     2
  9
$LUPREC
 70
     4
  9
$SKETCHINC
 40
0.1
  9
$FILLETRAD
 40
0.0
  9
$AUNITS
 70
     0
  9
$AUPREC
 70
     0
  9
$MENU
  1
.
  9
$ELEVATION
 40
0.0
  9
$PELEVATION
 40
0.0
  9
$THICKNESS
 40
0.0
  9
$LIMCHECK
 70
     0
  9
$BLIPMODE
 70
     0
  9
$CHAMFERA
 40
0.0
  9
$CHAMFERB
 40
0.0
  9
$SKPOLY
 70
     0
  9
$TDCREATE
 40
2455612.761119063
  9
$TDUPDATE
 40
2455613.765216643
  9
$TDINDWG
 40
0.0109235764
  9
$TDUSRTIMER
 40
0.0109232176
  9
$USRTIMER
 70
     1
  9
$ANGBASE
 50
0.0
  9
$ANGDIR
 70
     0
  9
$PDMODE
 70
     0
  9
$PDSIZE
 40
0.0
  9
$PLINEWID
 40
0.0
  9
$COORDS
 70
     1
  9
$SPLFRAME
 70
     0
  9
$SPLINETYPE
 70
     6
  9
$SPLINESEGS
 70
     8
  9
$ATTDIA
 70
     0
  9
$ATTREQ
 70
     1
  9
$HANDLING
 70
     1
  9
$HANDSEED
  5
737
  9
$SURFTAB1
 70
     6
  9
$SURFTAB2
 70
     6
  9
$SURFTYPE
 70
     6
  9
$SURFU
 70
     6
  9
$SURFV
 70
     6
  9
$UCSNAME
  2

  9
$UCSORG
 10
0.0
 20
0.0
 30
0.0
  9
$UCSXDIR
 10
1.0
 20
0.0
 30
0.0
  9
$UCSYDIR
 10
0.0
 20
1.0
 30
0.0
  9
$PUCSNAME
  2

  9
$PUCSORG
 10
0.0
 20
0.0
 30
0.0
  9
$PUCSXDIR
 10
1.0
 20
0.0
 30
0.0
  9
$PUCSYDIR
 10
0.0
 20
1.0
 30
0.0
  9
$USERI1
 70
     0
  9
$USERI2
 70
     0
  9
$USERI3
 70
     0
  9
$USERI4
 70
     0
  9
$USERI5
 70
     0
  9
$USERR1
 40
0.0
  9
$USERR2
 40
0.0
  9
$USERR3
 40
0.0
  9
$USERR4
 40
0.0
  9
$USERR5
 40
0.0
  9
$WORLDVIEW
 70
     1
  9
$SHADEDGE
 70
     3
  9
$SHADEDIF
 70
    70
  9
$TILEMODE
 70
     1
  9
$MAXACTVP
 70
    64
  9
$PLIMCHECK
 70
     0
  9
$PEXTMIN
 10
1.0000000000000000E+020
 20
1.0000000000000000E+020
 30
1.0000000000000000E+020
  9
$PEXTMAX
 10
-1.0000000000000000E+020
 20
-1.0000000000000000E+020
 30
-1.0000000000000000E+020
  9
$PLIMMIN
 10
0.0
 20
0.0
  9
$PLIMMAX
 10
12.0
 20
9.0
  9
$UNITMODE
 70
     0
  9
$VISRETAIN
 70
     1
  9
$PLINEGEN
 70
     0
  9
$PSLTSCALE
 70
     1
  0
ENDSEC
  0
SECTION
  2
TABLES
  0
TABLE
  2
VPORT
 70
     1
  0
VPORT
  2
*ACTIVE
 70
     0
 10
0.0
 20
0.0
 11
1.0
 21
1.0
 12
207.075504415854
 22
201.03112634579949
 13
0.0
 23
0.0
 14
1.0
 24
1.0
 15
0.0
 25
0.0
 16
0.0
 26
0.0
 36
1.0
 17
0.0
 27
0.0
 37
0.0
 40
389.48831954787107
 41
2.2910714285714282
 42
50.0
 43
0.0
 44
0.0
 50
0.0
 51
0.0
 71
     0
 72
  1000
 73
     1
 74
     3
 75
     0
 76
     0
 77
     0
 78
     0
  0
ENDTAB
  0
TABLE
  2
LTYPE
 70
     1
  0
LTYPE
  2
CONTINUOUS
 70
     0
  3
Solid line
 72
    65
 73
     0
 40
0.0
  0
ENDTAB
  0
TABLE
  2
LAYER
 70
     4
  0
LAYER
  2
0
 70
     0
 62
     7
  6
CONTINUOUS
  0
LAYER
  2
标注
 70
     0
 62
     7
  6
CONTINUOUS
  0
LAYER
  2
DEFPOINTS
 70
     0
 62
     7
  6
CONTINUOUS
  0
LAYER
  2
实线
 70
     0
 62
     7
  6
CONTINUOUS
  0
ENDTAB
  0
TABLE
  2
STYLE
 70
     2
  0
STYLE
  2
STANDARD
 70
     0
 40
0.0
 41
1.0
 50
0.0
 71
     0
 42
0.2
  3
txt
  4

  0
STYLE
  2
ANNOTATIVE
 70
     0
 40
0.0
 41
1.0
 50
0.0
 71
     0
 42
0.2
  3
txt
  4

  0
ENDTAB
  0
TABLE
  2
VIEW
 70
     0
  0
ENDTAB
  0
TABLE
  2
UCS
 70
     0
  0
ENDTAB
  0
TABLE
  2
APPID
 70
     8
  0
APPID
  2
ACAD
 70
     0
  0
APPID
  2
ACADANNOTATIVE
 70
     0
  0
APPID
  2
ACAD_DSTYLE_DIMJAG
 70
     0
  0
APPID
  2
ACAD_DSTYLE_DIMBREAK
 70
     0
  0
APPID
  2
ACAD_DSTYLE_DIMTALN
 70
     0
  0
APPID
  2
ACAD_MLEADERVER
 70
     0
  0
APPID
  2
ACAD_EXEMPT_FROM_CAD_STANDARDS
 70
     0
  0
APPID
  2
ACAD_DSTYLE_DIMRADIAL_EXTENSION
 70
     0
  0
ENDTAB
  0
TABLE
  2
DIMSTYLE
 70
     2
  0
DIMSTYLE
  2
STANDARD
 70
     0
  3

  4

  5

  6

  7

 40
1.0
 41
18.0
 42
6.0
 43
0.0
 44
10.0
 45
0.0
 46
0.0
 47
0.0
 48
0.0
140
18.0
141
0.09
142
0.0
143
25.399999999999999
144
1.0
145
0.0
146
1.0
147
10.0
 71
     0
 72
     0
 73
     1
 74
     1
 75
     0
 76
     0
 77
     2
 78
     0
170
     0
171
     2
172
     0
173
     0
174
     0
175
     0
176
     0
177
     0
178
     0
  0
DIMSTYLE
  2
ANNOTATIVE
 70
     0
  3

  4

  5

  6

  7

 40
1.0
 41
0.18
 42
0.0625
 43
0.38
 44
0.18
 45
0.0
 46
0.0
 47
0.0
 48
0.0
140
0.18
141
0.09
142
0.0
143
25.399999999999999
144
1.0
145
0.0
146
1.0
147
0.09
 71
     0
 72
     0
 73
     1
 74
     1
 75
     0
 76
     0
 77
     0
 78
     0
170
     0
171
     2
172
     0
173
     0
174
     0
175
     0
176
     0
177
     0
178
     0
  0
ENDTAB
  0
ENDSEC
  0
SECTION
  2
BLOCKS
  0
BLOCK
  8
0
  2
$MODEL_SPACE
 70
     0
 10
0.0
 20
0.0
 30
0.0
  3
$MODEL_SPACE
  1

  0
ENDBLK
  5
6D
  8
0
  0
BLOCK
 67
     1
  8
0
  2
$PAPER_SPACE
 70
     0
 10
0.0
 20
0.0
 30
0.0
  3
$PAPER_SPACE
  1

  0
ENDBLK
  5
69
 67
     1
  8
0
  0
BLOCK
  8
0
  2
*D0
 70
     1
 10
0.0
 20
0.0
 30
0.0
  3
*D0
  1

  0
LINE
  5
72
  8
标注
 10
-1864.0
 20
593.0
 30
0.0
 11
-1864.0
 21
617.0
 31
0.0
  0
LINE
  5
73
  8
标注
 10
0.0
 20
593.0
 30
0.0
 11
0.0
 21
617.0
 31
0.0
  0
LINE
  5
74
  8
标注
 10
-1864.0
 20
607.0
 30
0.0
 11
0.0
 21
607.0
 31
0.0
  0
SOLID
  5
75
  8
标注
 10
-1846.0
 20
604.0
 30
0.0
 11
-1846.0
 21
610.0
 31
0.0
 12
-1864.0
 22
607.0
 32
0.0
 13
-1864.0
 23
607.0
 33
0.0
  0
SOLID
  5
76
  8
标注
 10
-18.0
 20
604.0
 30
0.0
 11
-18.0
 21
610.0
 31
0.0
 12
0.0
 22
607.0
 32
0.0
 13
0.0
 23
607.0
 33
0.0
  0
INSERT
  5
78
  8
0
  2
*U1
 10
0.0
 20
0.0
 30
0.0
  0
POINT
  5
7A
  8
DEFPOINTS
 10
-1864.0
 20
587.0
 30
0.0
  0
POINT
  5
7B
  8
DEFPOINTS
 10
0.0
 20
587.0
 30
0.0
  0
POINT
  5
7C
  8
DEFPOINTS
 10
0.0
 20
607.0
 30
0.0
  0
ENDBLK
  5
7D
  8
0
  0
BLOCK
  8
0
  2
*U1
 70
     1
 10
0.0
 20
0.0
 30
0.0
  3
*U1
  1

  0
TEXT
  5
7F
  8
标注
 10
-932.0
 20
617.0
 30
0.0
 40
18.0
  1
1864
  0
ENDBLK
  5
81
  8
0
  0
BLOCK
  8
0
  2
*D2
 70
     1
 10
0.0
 20
0.0
 30
0.0
  3
*D2
  1

  0
LINE
  5
84
  8
标注
 10
6.0
 20
587.0
 30
0.0
 11
30.0
 21
587.0
 31
0.0
  0
LINE
  5
85
  8
标注
 10
6.0
 20
0.0
 30
0.0
 11
30.0
 21
0.0
 31
0.0
  0
LINE
  5
86
  8
标注
 10
20.0
 20
587.0
 30
0.0
 11
20.0
 21
0.0
 31
0.0
  0
SOLID
  5
87
  8
标注
 10
17.0
 20
569.0
 30
0.0
 11
23.0
 21
569.0
 31
0.0
 12
20.0
 22
587.0
 32
0.0
 13
20.0
 23
587.0
 33
0.0
  0
SOLID
  5
88
  8
标注
 10
17.0
 20
18.0
 30
0.0
 11
23.0
 21
18.0
 31
0.0
 12
20.0
 22
0.0
 32
0.0
 13
20.0
 23
0.0
 33
0.0
  0
INSERT
  5
8A
  8
0
  2
*U3
 10
0.0
 20
0.0
 30
0.0
  0
POINT
  5
8B
  8
DEFPOINTS
 10
0.0
 20
587.0
 30
0.0
  0
POINT
  5
8C
  8
DEFPOINTS
 10
0.0
 20
0.0
 30
0.0
  0
POINT
  5
8D
  8
DEFPOINTS
 10
20.0
 20
0.0
 30
0.0
  0
ENDBLK
  5
8E
  8
0
  0
BLOCK
  8
0
  2
*U3
 70
     1
 10
0.0
 20
0.0
 30
0.0
  3
*U3
  1

  0
TEXT
  5
90
  8
标注
 10
30.0
 20
293.5
 30
0.0
 40
18.0
  1
587
  0
ENDBLK
  5
91
  8
0
  0
BLOCK
  8
0
  2
*D4
 70
     1
 10
0.0
 20
0.0
 30
0.0
  3
*D4
  1

  0
LINE
  5
94
  8
标注
 10
300.0
 20
593.0
 30
0.0
 11
300.0
 21
617.0
 31
0.0
  0
LINE
  5
95
  8
标注
 10
318.0
 20
593.0
 30
0.0
 11
318.0
 21
617.0
 31
0.0
  0
LINE
  5
96
  8
标注
 10
264.0
 20
607.0
 30
0.0
 11
462.0
 21
607.0
 31
0.0
  0
SOLID
  5
97
  8
标注
 10
282.0
 20
604.0
 30
0.0
 11
282.0
 21
610.0
 31
0.0
 12
300.0
 22
607.0
 32
0.0
 13
300.0
 23
607.0
 33
0.0
  0
SOLID
  5
98
  8
标注
 10
336.0
 20
604.0
 30
0.0
 11
336.0
 21
610.0
 31
0.0
 12
318.0
 22
607.0
 32
0.0
 13
318.0
 23
607.0
 33
0.0
  0
INSERT
  5
9A
  8
0
  2
*U5
 10
0.0
 20
0.0
 30
0.0
  0
POINT
  5
9B
  8
DEFPOINTS
 10
300.0
 20
587.0
 30
0.0
  0
POINT
  5
9C
  8
DEFPOINTS
 10
318.0
 20
587.0
 30
0.0
  0
POINT
  5
9D
  8
DEFPOINTS
 10
318.0
 20
607.0
 30
0.0
  0
ENDBLK
  5
9E
  8
0
  0
BLOCK
  8
0
  2
*U5
 70
     1
 10
0.0
 20
0.0
 30
0.0
  3
*U5
  1

  0
TEXT
  5
A0
  8
标注
 10
409.0
 20
617.0
 30
0.0
 40
18.0
  1
18
  0
ENDBLK
  5
A1
  8
0
  0
BLOCK
  8
0
  2
*D6
 70
     1
 10
0.0
 20
0.0
 30
0.0
  3
*D6
  1

  0
LINE
  5
1C0
  8
0
  6
CONTINUOUS
 62
     0
 10
-1864.0625
 20
0.0
 30
0.0
 11
-1990.134837229652
 21
0.0000000000000357
 31
0.0
  0
LINE
  5
1C1
  8
0
  6
CONTINUOUS
 62
     0
 10
-932.06249999999989
 20
229.5
 30
0.0
 11
-1990.134837229652
 21
229.50000000000031
 31
0.0
  0
LINE
  5
1C2
  8
0
  6
CONTINUOUS
 62
     0
 10
-1989.954837229652
 20
0.1800000000000357
 30
0.0
 11
-1989.954837229652
 21
114.57000000000011
 31
0.0
  0
LINE
  5
1C3
  8
0
  6
CONTINUOUS
 62
     0
 10
-1989.954837229652
 20
229.32000000000031
 30
0.0
 11
-1989.954837229652
 21
114.93000000000011
 31
0.0
  0
SOLID
  5
1C4
  8
0
  6
CONTINUOUS
 62
     0
 10
-1989.9848372296519
 20
0.1800000000000357
 30
0.0
 11
-1989.924837229652
 21
0.1800000000000357
 31
0.0
 12
-1989.954837229652
 22
0.0000000000000357
 32
0.0
 13
-1989.954837229652
 23
0.0000000000000357
 33
0.0
  0
SOLID
  5
1C5
  8
0
  6
CONTINUOUS
 62
     0
 10
-1989.9848372296519
 20
229.32000000000031
 30
0.0
 11
-1989.924837229652
 21
229.32000000000031
 31
0.0
 12
-1989.954837229652
 22
229.50000000000031
 32
0.0
 13
-1989.954837229652
 23
229.50000000000031
 33
0.0
  0
INSERT
  5
1C6
  8
0
  6
CONTINUOUS
  2
*U15
 10
0.0
 20
0.0
 30
0.0
  0
POINT
  5
1C7
  8
DEFPOINTS
  6
CONTINUOUS
 62
     0
 10
-1864.0
 20
0.0
 30
0.0
  0
POINT
  5
1C8
  8
DEFPOINTS
  6
CONTINUOUS
 62
     0
 10
-932.0
 20
229.5
 30
0.0
  0
POINT
  5
1C9
  8
DEFPOINTS
  6
CONTINUOUS
 62
     0
 10
-1989.954837229652
 20
229.50000000000031
 30
0.0
  0
ENDBLK
  5
1BF
  8
0
  0
BLOCK
  8
0
  2
*D7
 70
     1
 10
0.0
 20
0.0
 30
0.0
  3
*D7
  1

  0
LINE
  5
28C
  8
0
  6
CONTINUOUS
 62
     0
 10
-932.06249999999989
 20
229.5
 30
0.0
 11
-1990.134837229652
 21
229.50000000000031
 31
0.0
  0
LINE
  5
28D
  8
0
  6
CONTINUOUS
 62
     0
 10
-24.0625
 20
261.5
 30
0.0
 11
-1990.134837229652
 21
261.50000000000051
 31
0.0
  0
LINE
  5
28E
  8
0
  6
CONTINUOUS
 62
     0
 10
-1989.954837229652
 20
229.68000000000029
 30
0.0
 11
-1989.954837229652
 21
245.3200000000005
 31
0.0
  0
LINE
  5
28F
  8
0
  6
CONTINUOUS
 62
     0
 10
-1989.954837229652
 20
261.32000000000062
 30
0.0
 11
-1989.954837229652
 21
245.68000000000049
 31
0.0
  0
SOLID
  5
290
  8
0
  6
CONTINUOUS
 62
     0
 10
-1989.9848372296519
 20
229.68000000000029
 30
0.0
 11
-1989.924837229652
 21
229.68000000000029
 31
0.0
 12
-1989.954837229652
 22
229.50000000000031
 32
0.0
 13
-1989.954837229652
 23
229.50000000000031
 33
0.0
  0
SOLID
  5
291
  8
0
  6
CONTINUOUS
 62
     0
 10
-1989.9848372296519
 20
261.32000000000062
 30
0.0
 11
-1989.924837229652
 21
261.32000000000062
 31
0.0
 12
-1989.954837229652
 22
261.50000000000051
 32
0.0
 13
-1989.954837229652
 23
261.50000000000051
 33
0.0
  0
TEXT
  8
0
  40
0.18
  5
2C2
  62
0
  72
0
  71
0
 10
-1990.31
 20
245.181
 30
0.000000
  1
32.0000
  0
POINT
  5
293
  8
DEFPOINTS
  6
CONTINUOUS
 62
     0
 10
-932.0
 20
229.5
 30
0.0
  0
POINT
  5
294
  8
DEFPOINTS
  6
CONTINUOUS
 62
     0
 10
-24.0
 20
261.5
 30
0.0
  0
POINT
  5
295
  8
DEFPOINTS
  6
CONTINUOUS
 62
     0
 10
-1989.954837229652
 20
261.50000000000051
 30
0.0
  0
ENDBLK
  5
1CD
  8
0
  0
BLOCK
  8
0
  2
*D8
 70
     1
 10
0.0
 20
0.0
 30
0.0
  3
*D8
  1

  0
LINE
  5
296
  8
0
  6
CONTINUOUS
 62
     0
 10
-24.0625
 20
261.5
 30
0.0
 11
-1990.134837229652
 21
261.50000000000051
 31
0.0
  0
LINE
  5
297
  8
0
  6
CONTINUOUS
 62
     0
 10
-24.0625
 20
325.5
 30
0.0
 11
-1990.134837229652
 21
325.50000000000063
 31
0.0
  0
LINE
  5
298
  8
0
  6
CONTINUOUS
 62
     0
 10
-1989.954837229652
 20
261.68000000000058
 30
0.0
 11
-1989.954837229652
 21
293.32000000000062
 31
0.0
  0
LINE
  5
299
  8
0
  6
CONTINUOUS
 62
     0
 10
-1989.954837229652
 20
325.32000000000062
 30
0.0
 11
-1989.954837229652
 21
293.68000000000058
 31
0.0
  0
SOLID
  5
29A
  8
0
  6
CONTINUOUS
 62
     0
 10
-1989.9848372296519
 20
261.68000000000058
 30
0.0
 11
-1989.924837229652
 21
261.68000000000058
 31
0.0
 12
-1989.954837229652
 22
261.50000000000051
 32
0.0
 13
-1989.954837229652
 23
261.50000000000051
 33
0.0
  0
SOLID
  5
29B
  8
0
  6
CONTINUOUS
 62
     0
 10
-1989.9848372296519
 20
325.32000000000062
 30
0.0
 11
-1989.924837229652
 21
325.32000000000062
 31
0.0
 12
-1989.954837229652
 22
325.50000000000063
 32
0.0
 13
-1989.954837229652
 23
325.50000000000063
 33
0.0
  0
TEXT
  8
0
  40
0.18
  5
2C3
  62
0
  72
0
  71
0
 10
-1990.31
 20
293.181
 30
0.000000
  1
64.0000
  0
POINT
  5
29D
  8
DEFPOINTS
  6
CONTINUOUS
 62
     0
 10
-24.0
 20
261.5
 30
0.0
  0
POINT
  5
29E
  8
DEFPOINTS
  6
CONTINUOUS
 62
     0
 10
-24.0
 20
325.5
 30
0.0
  0
POINT
  5
29F
  8
DEFPOINTS
  6
CONTINUOUS
 62
     0
 10
-1989.954837229652
 20
325.50000000000063
 30
0.0
  0
ENDBLK
  5
1DB
  8
0
  0
BLOCK
  8
0
  2
*D9
 70
     1
 10
0.0
 20
0.0
 30
0.0
  3
*D9
  1

  0
LINE
  5
2A0
  8
0
  6
CONTINUOUS
 62
     0
 10
-24.0625
 20
325.5
 30
0.0
 11
-1990.134837229652
 21
325.50000000000063
 31
0.0
  0
LINE
  5
2A1
  8
0
  6
CONTINUOUS
 62
     0
 10
-932.06249999999989
 20
357.5
 30
0.0
 11
-1990.134837229652
 21
357.50000000000028
 31
0.0
  0
LINE
  5
2A2
  8
0
  6
CONTINUOUS
 62
     0
 10
-1989.954837229652
 20
325.68000000000058
 30
0.0
 11
-1989.954837229652
 21
341.3200000000005
 31
0.0
  0
LINE
  5
2A3
  8
0
  6
CONTINUOUS
 62
     0
 10
-1989.954837229652
 20
357.32000000000028
 30
0.0
 11
-1989.954837229652
 21
341.68000000000052
 31
0.0
  0
SOLID
  5
2A4
  8
0
  6
CONTINUOUS
 62
     0
 10
-1989.9848372296519
 20
325.68000000000058
 30
0.0
 11
-1989.924837229652
 21
325.68000000000058
 31
0.0
 12
-1989.954837229652
 22
325.50000000000063
 32
0.0
 13
-1989.954837229652
 23
325.50000000000063
 33
0.0
  0
SOLID
  5
2A5
  8
0
  6
CONTINUOUS
 62
     0
 10
-1989.9848372296519
 20
357.32000000000028
 30
0.0
 11
-1989.924837229652
 21
357.32000000000028
 31
0.0
 12
-1989.954837229652
 22
357.50000000000028
 32
0.0
 13
-1989.954837229652
 23
357.50000000000028
 33
0.0
  0
TEXT
  8
0
  40
0.18
  5
2C4
  62
0
  72
0
  71
0
 10
-1990.31
 20
341.181
 30
0.000000
  1
32.0000
  0
POINT
  5
2A7
  8
DEFPOINTS
  6
CONTINUOUS
 62
     0
 10
-24.0
 20
325.5
 30
0.0
  0
POINT
  5
2A8
  8
DEFPOINTS
  6
CONTINUOUS
 62
     0
 10
-932.0
 20
357.5
 30
0.0
  0
POINT
  5
2A9
  8
DEFPOINTS
  6
CONTINUOUS
 62
     0
 10
-1989.954837229652
 20
357.50000000000028
 30
0.0
  0
ENDBLK
  5
1E9
  8
0
  0
BLOCK
  8
0
  2
*D10
 70
     1
 10
0.0
 20
0.0
 30
0.0
  3
*D10
  1

  0
LINE
  5
1F8
  8
0
  6
CONTINUOUS
 62
     0
 10
-1864.0
 20
-0.0625
 30
0.0
 11
-1864.0
 21
-59.108608773858741
 31
0.0
  0
LINE
  5
1F9
  8
0
  6
CONTINUOUS
 62
     0
 10
-1840.0
 20
325.43750000000051
 30
0.0
 11
-1840.0
 21
-59.108608773858748
 31
0.0
  0
LINE
  5
1FA
  8
0
  6
CONTINUOUS
 62
     0
 10
-1863.8199999999999
 20
-58.928608773858741
 30
0.0
 11
-1852.5699999999999
 21
-58.928608773858741
 31
0.0
  0
LINE
  5
1FB
  8
0
  6
CONTINUOUS
 62
     0
 10
-1840.1800000000001
 20
-58.928608773858741
 30
0.0
 11
-1851.4300000000001
 21
-58.928608773858741
 31
0.0
  0
SOLID
  5
1FC
  8
0
  6
CONTINUOUS
 62
     0
 10
-1863.8199999999999
 20
-58.89860877385874
 30
0.0
 11
-1863.8199999999999
 21
-58.958608773858742
 31
0.0
 12
-1864.0
 22
-58.928608773858741
 32
0.0
 13
-1864.0
 23
-58.928608773858741
 33
0.0
  0
SOLID
  5
1FD
  8
0
  6
CONTINUOUS
 62
     0
 10
-1840.1800000000001
 20
-58.89860877385874
 30
0.0
 11
-1840.1800000000001
 21
-58.958608773858742
 31
0.0
 12
-1840.0
 22
-58.928608773858741
 32
0.0
 13
-1840.0
 23
-58.928608773858741
 33
0.0
  0
INSERT
  5
1FE
  8
0
  6
CONTINUOUS
  2
*U16
 10
0.0
 20
0.0
 30
0.0
  0
POINT
  5
1FF
  8
DEFPOINTS
  6
CONTINUOUS
 62
     0
 10
-1864.0
 20
0.0
 30
0.0
  0
POINT
  5
200
  8
DEFPOINTS
  6
CONTINUOUS
 62
     0
 10
-1840.0
 20
325.50000000000051
 30
0.0
  0
POINT
  5
201
  8
DEFPOINTS
  6
CONTINUOUS
 62
     0
 10
-1840.0
 20
-58.928608773858741
 30
0.0
  0
ENDBLK
  5
1F7
  8
0
  0
BLOCK
  8
0
  2
*D11
 70
     1
 10
0.0
 20
0.0
 30
0.0
  3
*D11
  1

  0
LINE
  5
2AE
  8
0
  6
CONTINUOUS
 62
     0
 10
-1840.0
 20
325.43750000000051
 30
0.0
 11
-1840.0
 21
-59.108608773858748
 31
0.0
  0
LINE
  5
2AF
  8
0
  6
CONTINUOUS
 62
     0
 10
-932.0
 20
357.4375
 30
0.0
 11
-932.0
 21
-59.108608773858748
 31
0.0
  0
LINE
  5
2B0
  8
0
  6
CONTINUOUS
 62
     0
 10
-1839.8199999999999
 20
-58.928608773858741
 30
0.0
 11
-1386.645
 21
-58.928608773858741
 31
0.0
  0
LINE
  5
2B1
  8
0
  6
CONTINUOUS
 62
     0
 10
-932.17999999999995
 20
-58.928608773858741
 30
0.0
 11
-1385.355
 21
-58.928608773858741
 31
0.0
  0
SOLID
  5
2B2
  8
0
  6
CONTINUOUS
 62
     0
 10
-1839.8199999999999
 20
-58.89860877385874
 30
0.0
 11
-1839.8199999999999
 21
-58.958608773858742
 31
0.0
 12
-1840.0
 22
-58.928608773858741
 32
0.0
 13
-1840.0
 23
-58.928608773858741
 33
0.0
  0
SOLID
  5
2B3
  8
0
  6
CONTINUOUS
 62
     0
 10
-932.17999999999995
 20
-58.89860877385874
 30
0.0
 11
-932.17999999999995
 21
-58.958608773858742
 31
0.0
 12
-932.0
 22
-58.928608773858741
 32
0.0
 13
-932.0
 23
-58.928608773858741
 33
0.0
  0
TEXT
  8
0
  40
0.18
  5
2C5
  62
0
  72
0
  71
0
 10
-1386.36
 20
-59.2472
 30
0.000000
  1
908.0000
  0
POINT
  5
2B5
  8
DEFPOINTS
  6
CONTINUOUS
 62
     0
 10
-1840.0
 20
325.50000000000051
 30
0.0
  0
POINT
  5
2B6
  8
DEFPOINTS
  6
CONTINUOUS
 62
     0
 10
-932.0
 20
357.5
 30
0.0
  0
POINT
  5
2B7
  8
DEFPOINTS
  6
CONTINUOUS
 62
     0
 10
-932.0
 20
-58.928608773858741
 30
0.0
  0
ENDBLK
  5
205
  8
0
  0
BLOCK
  8
0
  2
*D12
 70
     1
 10
0.0
 20
0.0
 30
0.0
  3
*D12
  1

  0
LINE
  5
2B8
  8
0
  6
CONTINUOUS
 62
     0
 10
-932.0
 20
357.4375
 30
0.0
 11
-932.0
 21
-59.108608773858748
 31
0.0
  0
LINE
  5
2B9
  8
0
  6
CONTINUOUS
 62
     0
 10
-24.0625
 20
325.4375
 30
0.0
 11
-24.062500000000021
 21
-59.108608773858748
 31
0.0
  0
LINE
  5
2BA
  8
0
  6
CONTINUOUS
 62
     0
 10
-931.82000000000005
 20
-58.928608773858741
 30
0.0
 11
-478.73624999999998
 21
-58.928608773858741
 31
0.0
  0
LINE
  5
2BB
  8
0
  6
CONTINUOUS
 62
     0
 10
-24.242500000000021
 20
-58.928608773858741
 30
0.0
 11
-477.32625000000002
 21
-58.928608773858741
 31
0.0
  0
SOLID
  5
2BC
  8
0
  6
CONTINUOUS
 62
     0
 10
-931.82000000000005
 20
-58.89860877385874
 30
0.0
 11
-931.82000000000005
 21
-58.958608773858742
 31
0.0
 12
-932.0
 22
-58.928608773858741
 32
0.0
 13
-932.0
 23
-58.928608773858741
 33
0.0
  0
SOLID
  5
2BD
  8
0
  6
CONTINUOUS
 62
     0
 10
-24.242500000000021
 20
-58.89860877385874
 30
0.0
 11
-24.242500000000021
 21
-58.958608773858742
 31
0.0
 12
-24.062500000000021
 22
-58.928608773858741
 32
0.0
 13
-24.062500000000021
 23
-58.928608773858741
 33
0.0
  0
TEXT
  8
0
  40
0.18
  5
2C6
  62
0
  72
0
  71
0
 10
-478.391
 20
-59.2472
 30
0.000000
  1
907.9375
  0
POINT
  5
2BF
  8
DEFPOINTS
  6
CONTINUOUS
 62
     0
 10
-932.0
 20
357.5
 30
0.0
  0
POINT
  5
2C0
  8
DEFPOINTS
  6
CONTINUOUS
 62
     0
 10
-24.0625
 20
325.5
 30
0.0
  0
POINT
  5
2C1
  8
DEFPOINTS
  6
CONTINUOUS
 62
     0
 10
-24.062500000000021
 20
-58.928608773858741
 30
0.0
  0
ENDBLK
  5
213
  8
0
  0
BLOCK
  8
0
  2
*U13
 70
     1
 10
0.0
 20
0.0
 30
0.0
  3
*U13
  1

  0
TEXT
  5
281
  8
0
  6
CONTINUOUS
 62
     0
 10
-2081.4879012104839
 20
293.4100000000002
 30
0.0
 40
0.18
  1
64.0000
  0
ENDBLK
  5
283
  8
0
  0
BLOCK
  8
0
  2
*U14
 70
     1
 10
0.0
 20
0.0
 30
0.0
  3
*U14
  1

  0
TEXT
  5
285
  8
0
  6
CONTINUOUS
 62
     0
 10
-2081.4879012104839
 20
341.41000000000008
 30
0.0
 40
0.18
  1
32.0000
  0
ENDBLK
  5
287
  8
0
  0
BLOCK
  8
0
  2
*U15
 70
     1
 10
0.0
 20
0.0
 30
0.0
  3
*U15
  1

  0
TEXT
  5
289
  8
0
  6
CONTINUOUS
 62
     0
 10
-1990.539837229652
 20
114.6599999999998
 30
0.0
 40
0.18
  1
229.5000
  0
ENDBLK
  5
28B
  8
0
  0
BLOCK
  8
0
  2
*U16
 70
     1
 10
0.0
 20
0.0
 30
0.0
  3
*U16
  1

  0
TEXT
  5
2AB
  8
0
  6
CONTINUOUS
 62
     0
 10
-1852.48
 20
-59.018608773858737
 30
0.0
 40
0.18
  1
24.0000
  0
ENDBLK
  5
2AD
  8
0
  0
ENDSEC
  0
SECTION
  2
ENTITIES
  0
POLYLINE
  5
A3
  8
实线
 66
     1
 10
0.0
 20
0.0
 30
0.0
 70
     1
  0
VERTEX
  5
271
  8
实线
 10
-1864.0
 20
0.0
 30
0.0
  0
VERTEX
  5
272
  8
实线
 10
-1864.0
 20
587.0
 30
0.0
  0
VERTEX
  5
273
  8
实线
 10
0.0
 20
587.0
 30
0.0
  0
VERTEX
  5
274
  8
实线
 10
0.0
 20
0.0
 30
0.0
  0
SEQEND
  5
275
  8
实线
  0
POLYLINE
  5
A9
  8
实线
 66
     1
 10
0.0
 20
0.0
 30
0.0
 70
     1
  0
VERTEX
  5
276
  8
实线
 10
300.0
 20
0.0
 30
0.0
  0
VERTEX
  5
277
  8
实线
 10
300.0
 20
587.0
 30
0.0
  0
VERTEX
  5
278
  8
实线
 10
318.0
 20
587.0
 30
0.0
  0
VERTEX
  5
279
  8
实线
 10
318.0
 20
0.0
 30
0.0
  0
SEQEND
  5
27A
  8
实线
  0
POLYLINE
  5
AF
  8
实线
 66
     1
 10
0.0
 20
0.0
 30
0.0
 70
     1
  0
VERTEX
  5
27B
  8
实线
 10
-1864.0
 20
-318.0
 30
0.0
  0
VERTEX
  5
27C
  8
实线
 10
-1864.0
 20
-300.0
 30
0.0
  0
VERTEX
  5
27D
  8
实线
 10
0.0
 20
-300.0
 30
0.0
  0
VERTEX
  5
27E
  8
实线
 10
0.0
 20
-318.0
 30
0.0
  0
SEQEND
  5
27F
  8
实线
  0
DIMENSION
  5
B5
  8
标注
  2
*D0
 10
0.0
 20
607.0
 30
0.0
 11
-932.0
 21
617.0
 31
0.0
 70
     1
 13
-1864.0
 23
587.0
 33
0.0
 14
0.0
 24
587.0
 34
0.0
  0
DIMENSION
  5
B6
  8
标注
  2
*D2
 10
20.0
 20
0.0
 30
0.0
 11
30.0
 21
293.5
 31
0.0
 70
     1
 13
0.0
 23
587.0
 33
0.0
 14
0.0
 24
0.0
 34
0.0
  0
DIMENSION
  5
B7
  8
标注
  2
*D4
 10
318.0
 20
607.0
 30
0.0
 11
409.0
 21
617.0
 31
0.0
 70
     1
 13
300.0
 23
587.0
 33
0.0
 14
318.0
 24
587.0
 34
0.0
  0
CIRCLE
  5
B9
  8
虚线
 10
-1840.0
 20
261.5
 30
0.0
 40
10.0
  0
LINE
  5
BB
  8
中心线
 10
-1860.0
 20
261.5
 30
0.0
 11
-1820.0
 21
261.5
 31
0.0
  0
LINE
  5
BC
  8
中心线
 10
-1840.0
 20
241.5
 30
0.0
 11
-1840.0
 21
281.5
 31
0.0
  0
TEXT
  5
BD
  8
标注
 10
-1830.0
 20
271.5
 30
0.0
 40
12.0
  1
4
  0
CIRCLE
  5
BE
  8
虚线
 10
-1840.0
 20
325.5
 30
0.0
 40
10.0
  0
LINE
  5
BF
  8
中心线
 10
-1860.0
 20
325.5
 30
0.0
 11
-1820.0
 21
325.5
 31
0.0
  0
LINE
  5
C0
  8
中心线
 10
-1840.0
 20
305.5
 30
0.0
 11
-1840.0
 21
345.5
 31
0.0
  0
TEXT
  5
C1
  8
标注
 10
-1830.0
 20
335.5
 30
0.0
 40
12.0
  1
4
  0
CIRCLE
  5
C2
  8
虚线
 10
-24.0
 20
261.5
 30
0.0
 40
10.0
  0
LINE
  5
C3
  8
中心线
 10
-44.0
 20
261.5
 30
0.0
 11
-4.0
 21
261.5
 31
0.0
  0
LINE
  5
C4
  8
中心线
 10
-24.0
 20
241.5
 30
0.0
 11
-24.0
 21
281.5
 31
0.0
  0
TEXT
  5
C5
  8
标注
 10
-14.0
 20
271.5
 30
0.0
 40
12.0
  1
4
  0
CIRCLE
  5
C6
  8
虚线
 10
-24.0
 20
325.5
 30
0.0
 40
10.0
  0
LINE
  5
C7
  8
中心线
 10
-44.0
 20
325.5
 30
0.0
 11
-4.0
 21
325.5
 31
0.0
  0
LINE
  5
C8
  8
中心线
 10
-24.0
 20
305.5
 30
0.0
 11
-24.0
 21
345.5
 31
0.0
  0
TEXT
  5
C9
  8
标注
 10
-14.0
 20
335.5
 30
0.0
 40
12.0
  1
4
  0
CIRCLE
  5
CA
  8
虚线
 10
309.0
 20
261.5
 30
0.0
 40
5.0
  0
LINE
  5
CB
  8
中心线
 10
299.0
 20
261.5
 30
0.0
 11
319.0
 21
261.5
 31
0.0
  0
LINE
  5
CC
  8
中心线
 10
309.0
 20
251.5
 30
0.0
 11
309.0
 21
271.5
 31
0.0
  0
TEXT
  5
CD
  8
标注
 10
314.0
 20
266.5
 30
0.0
 40
12.0
  1
3
  0
CIRCLE
  5
CE
  8
虚线
 10
309.0
 20
325.5
 30
0.0
 40
5.0
  0
LINE
  5
CF
  8
中心线
 10
299.0
 20
325.5
 30
0.0
 11
319.0
 21
325.5
 31
0.0
  0
LINE
  5
D0
  8
中心线
 10
309.0
 20
315.5
 30
0.0
 11
309.0
 21
335.5
 31
0.0
  0
TEXT
  5
D1
  8
标注
 10
314.0
 20
330.5
 30
0.0
 40
12.0
  1
3
  0
CIRCLE
  5
D2
  8
虚线
 10
309.0
 20
229.5
 30
0.0
 40
4.0
  0
LINE
  5
D3
  8
中心线
 10
301.0
 20
229.5
 30
0.0
 11
317.0
 21
229.5
 31
0.0
  0
LINE
  5
D4
  8
中心线
 10
309.0
 20
221.5
 30
0.0
 11
309.0
 21
237.5
 31
0.0
  0
TEXT
  5
D5
  8
标注
 10
313.0
 20
233.5
 30
0.0
 40
12.0
  1
1
  0
CIRCLE
  5
D6
  8
虚线
 10
309.0
 20
357.5
 30
0.0
 40
4.0
  0
LINE
  5
D7
  8
中心线
 10
301.0
 20
357.5
 30
0.0
 11
317.0
 21
357.5
 31
0.0
  0
LINE
  5
D8
  8
中心线
 10
309.0
 20
349.5
 30
0.0
 11
309.0
 21
365.5
 31
0.0
  0
TEXT
  5
D9
  8
标注
 10
313.0
 20
361.5
 30
0.0
 40
12.0
  1
1
  0
CIRCLE
  5
DA
  8
实线
 10
-932.0
 20
261.5
 30
0.0
 40
5.0
  0
LINE
  5
DB
  8
中心线
 10
-942.0
 20
261.5
 30
0.0
 11
-922.0
 21
261.5
 31
0.0
  0
LINE
  5
DC
  8
中心线
 10
-932.0
 20
251.5
 30
0.0
 11
-932.0
 21
271.5
 31
0.0
  0
TEXT
  5
DD
  8
标注
 10
-927.0
 20
266.5
 30
0.0
 40
12.0
  1
2
  0
CIRCLE
  5
DE
  8
实线
 10
-932.0
 20
325.5
 30
0.0
 40
5.0
  0
LINE
  5
DF
  8
中心线
 10
-942.0
 20
325.5
 30
0.0
 11
-922.0
 21
325.5
 31
0.0
  0
LINE
  5
E0
  8
中心线
 10
-932.0
 20
315.5
 30
0.0
 11
-932.0
 21
335.5
 31
0.0
  0
TEXT
  5
E1
  8
标注
 10
-927.0
 20
330.5
 30
0.0
 40
12.0
  1
2
  0
CIRCLE
  5
E2
  8
实线
 10
-932.0
 20
229.5
 30
0.0
 40
4.0
  0
LINE
  5
E3
  8
中心线
 10
-940.0
 20
229.5
 30
0.0
 11
-924.0
 21
229.5
 31
0.0
  0
LINE
  5
E4
  8
中心线
 10
-932.0
 20
221.5
 30
0.0
 11
-932.0
 21
237.5
 31
0.0
  0
TEXT
  5
E5
  8
标注
 10
-928.0
 20
233.5
 30
0.0
 40
12.0
  1
0
  0
CIRCLE
  5
E6
  8
实线
 10
-932.0
 20
357.5
 30
0.0
 40
4.0
  0
LINE
  5
E7
  8
中心线
 10
-940.0
 20
357.5
 30
0.0
 11
-924.0
 21
357.5
 31
0.0
  0
LINE
  5
E8
  8
中心线
 10
-932.0
 20
349.5
 30
0.0
 11
-932.0
 21
365.5
 31
0.0
  0
TEXT
  5
E9
  8
标注
 10
-928.0
 20
361.5
 30
0.0
 40
12.0
  1
0
  0
CIRCLE
  5
EA
  8
实线
 10
309.0
 20
261.5
 30
0.0
 40
5.0
  0
LINE
  5
EB
  8
中心线
 10
299.0
 20
261.5
 30
0.0
 11
319.0
 21
261.5
 31
0.0
  0
LINE
  5
EC
  8
中心线
 10
309.0
 20
251.5
 30
0.0
 11
309.0
 21
271.5
 31
0.0
  0
TEXT
  5
ED
  8
标注
 10
314.0
 20
266.5
 30
0.0
 40
12.0
  1
3
  0
CIRCLE
  5
EE
  8
实线
 10
309.0
 20
325.5
 30
0.0
 40
5.0
  0
LINE
  5
EF
  8
中心线
 10
299.0
 20
325.5
 30
0.0
 11
319.0
 21
325.5
 31
0.0
  0
LINE
  5
F0
  8
中心线
 10
309.0
 20
315.5
 30
0.0
 11
309.0
 21
335.5
 31
0.0
  0
TEXT
  5
F1
  8
标注
 10
314.0
 20
330.5
 30
0.0
 40
12.0
  1
3
  0
CIRCLE
  5
F2
  8
实线
 10
309.0
 20
229.5
 30
0.0
 40
4.0
  0
LINE
  5
F3
  8
中心线
 10
301.0
 20
229.5
 30
0.0
 11
317.0
 21
229.5
 31
0.0
  0
LINE
  5
F4
  8
中心线
 10
309.0
 20
221.5
 30
0.0
 11
309.0
 21
237.5
 31
0.0
  0
TEXT
  5
F5
  8
标注
 10
313.0
 20
233.5
 30
0.0
 40
12.0
  1
1
  0
CIRCLE
  5
F6
  8
实线
 10
309.0
 20
357.5
 30
0.0
 40
4.0
  0
LINE
  5
F7
  8
中心线
 10
301.0
 20
357.5
 30
0.0
 11
317.0
 21
357.5
 31
0.0
  0
LINE
  5
F8
  8
中心线
 10
309.0
 20
349.5
 30
0.0
 11
309.0
 21
365.5
 31
0.0
  0
TEXT
  5
F9
  8
标注
 10
313.0
 20
361.5
 30
0.0
 40
12.0
  1
1
  0
DIMENSION
  5
1BC
  8
0
  6
CONTINUOUS
  2
*D6
 10
-1989.954837229652
 20
229.50000000000031
 30
0.0
 11
-1989.954837229652
 21
114.7499999999998
 31
0.0
 70
     0
 13
-1864.0
 23
0.0
 33
0.0
 14
-932.0
 24
229.5
 34
0.0
 50
90.0
  0
DIMENSION
  5
1CA
  8
0
  6
CONTINUOUS
  2
*D7
 10
-1989.954837229652
 20
261.50000000000051
 30
0.0
 11
-1989.954837229652
 21
245.50000000000011
 31
0.0
 70
     0
 13
-932.0
 23
229.5
 33
0.0
 14
-24.0
 24
261.5
 34
0.0
 50
90.0
1001
ACAD
1000
DSTYLE
1002
{
1070
   287
1070
     4
1070
   279
1070
     1
1002
}
  0
DIMENSION
  5
1D8
  8
0
  6
CONTINUOUS
  2
*D8
 10
-1989.954837229652
 20
325.50000000000063
 30
0.0
 11
-1989.954837229652
 21
293.50000000000023
 31
0.0
 70
     0
 13
-24.0
 23
261.5
 33
0.0
 14
-24.0
 24
325.5
 34
0.0
 50
90.0
1001
ACAD
1000
DSTYLE
1002
{
1070
   287
1070
     4
1070
   279
1070
     1
1002
}
  0
DIMENSION
  5
1E6
  8
0
  6
CONTINUOUS
  2
*D9
 10
-1989.954837229652
 20
357.50000000000028
 30
0.0
 11
-1989.954837229652
 21
341.50000000000011
 31
0.0
 70
     0
 13
-24.0
 23
325.5
 33
0.0
 14
-932.0
 24
357.5
 34
0.0
 50
90.0
1001
ACAD
1000
DSTYLE
1002
{
1070
   287
1070
     4
1070
   279
1070
     1
1002
}
  0
DIMENSION
  5
1F4
  8
0
  6
CONTINUOUS
  2
*D10
 10
-1840.0
 20
-58.928608773858741
 30
0.0
 11
-1852.0
 21
-58.928608773858741
 31
0.0
 70
     0
 13
-1864.0
 23
0.0
 33
0.0
 14
-1840.0
 24
325.50000000000051
 34
0.0
  0
DIMENSION
  5
202
  8
0
  6
CONTINUOUS
  2
*D11
 10
-932.0
 20
-58.928608773858741
 30
0.0
 11
-1386.0
 21
-58.928608773858741
 31
0.0
 70
     0
 13
-1840.0
 23
325.50000000000051
 33
0.0
 14
-932.0
 24
357.5
 34
0.0
1001
ACAD
1000
DSTYLE
1002
{
1070
   287
1070
     4
1070
   279
1070
     1
1002
}
  0
DIMENSION
  5
210
  8
0
  6
CONTINUOUS
  2
*D12
 10
-24.062500000000021
 20
-58.928608773858741
 30
0.0
 11
-478.03125
 21
-58.928608773858741
 31
0.0
 70
     0
 13
-932.0
 23
357.5
 33
0.0
 14
-24.0625
 24
325.5
 34
0.0
1001
ACAD
1000
DSTYLE
1002
{
1070
   287
1070
     4
1070
   279
1070
     1
1002
}
  0
ENDSEC
  0
EOF
